<svg width="1024" height="571" viewBox="0 0 1024 571" fill="none" xmlns="http://www.w3.org/2000/svg">
<g clip-path="url(#clip0)">
<path d="M406.317 167.123L348.16 200.996L338.919 151.732L395.028 106.235L406.317 167.123Z" fill="#00AEEF"/>
<path d="M517.498 99.0487L461.396 131.209L448.4 56.6303L504.497 11.1275L517.498 99.0487Z" fill="#00AEEF"/>
<path d="M590.711 163.368L530.5 183.886L517.499 99.3901L574.967 67.9191L590.711 163.368Z" fill="#00AEEF"/>
<path d="M666.314 250.942L603.701 256.757L590.022 158.912L650.569 144.552L666.314 250.942Z" fill="#00AEEF"/>
<path d="M546.239 265.309L485.68 277.281L474.05 204.074L532.555 179.442L546.239 265.309Z" fill="#00AEEF"/>
<path d="M620.469 352.194L557.875 350.487L545.208 264.62L605.749 254.362L620.469 352.194Z" fill="#00AEEF"/>
<path d="M474.391 204.744L416.576 228.004L405.976 166.44L462.42 130.507L474.391 204.744Z" fill="#00AEEF"/>
<path d="M428.212 290.264L368.001 301.224L357.736 251.96L416.923 229.035L428.212 290.264Z" fill="#00AEEF"/>
<path d="M499.023 351.505H438.129L427.182 289.246L486.71 277.616L499.023 351.505Z" fill="#00AEEF"/>
<path d="M378.266 350.822L316.348 348.086L307.448 309.093L367.659 300.193L378.266 350.822Z" fill="#00AEEF"/>
<path d="M359.442 251.96L300.603 272.825L290.686 231.772L348.501 201.325L359.442 251.96Z" fill="#00AEEF"/>
<path d="M308.82 310.8L247.926 314.56L240.398 285.144L300.262 272.483L308.82 310.8Z" fill="#00AEEF"/>
<path d="M190.532 388.276H204.117V415.08H204.384C205.737 412.74 207.177 410.581 208.524 408.421L222.289 388.276H239.113L219.049 414.093L240.193 448.903H224.181L209.337 422.72L204.117 429.106V448.891H190.532V388.276Z" fill="#0B9444"/>
<path d="M329.734 423.272H307.423V437.658H332.341V448.909H293.658V388.27H331.081V399.521H307.423V412.107H329.734V423.272V423.272Z" fill="#0B9444"/>
<path d="M389.585 389.077C393.992 388.363 400.564 387.823 407.85 387.823C416.849 387.823 423.142 389.176 427.461 392.595C431.061 395.481 433.034 399.701 433.034 405.281C433.034 413.013 427.548 418.332 422.329 420.212V420.479C426.555 422.18 428.895 426.245 430.428 431.818C432.314 438.657 434.201 446.569 435.374 448.909H421.342C420.349 447.203 418.915 442.256 417.116 434.79C415.496 427.231 412.883 425.159 407.31 425.078H403.17V448.922H389.585V389.077V389.077ZM403.17 415.173H408.57C415.409 415.173 419.455 411.753 419.455 406.447C419.455 400.868 415.676 398.069 409.377 397.988C406.044 397.988 404.157 398.262 403.17 398.442V415.173V415.173Z" fill="#0B9444"/>
<path d="M505.75 433.344L501.437 448.909H487.219L505.75 388.27H523.736L542.534 448.909H527.782L523.103 433.344H505.75ZM521.135 423.092L517.368 410.233C516.288 406.633 515.209 402.128 514.309 398.535H514.135C513.229 402.128 512.341 406.714 511.348 410.233L507.749 423.092H521.135Z" fill="#0B9444"/>
<path d="M598.537 388.276H612.302V437.391H636.413V448.903H598.537V388.276V388.276Z" fill="#0B9444"/>
<path d="M707.063 433.344L702.749 448.909H688.531L707.063 388.27H725.048L743.846 448.909H729.094L724.415 433.344H707.063ZM722.435 423.092L718.662 410.233C717.582 406.633 716.502 402.128 715.608 398.535H715.428C714.522 402.128 713.635 406.714 712.642 410.233L709.042 423.092H722.435Z" fill="#0B9444"/>
<path d="M3.61813 551.359C8.40301 553.81 15.751 556.256 23.3348 556.256C31.502 556.256 35.8152 552.873 35.8152 547.741C35.8152 542.838 32.0791 540.039 22.6335 536.657C9.56975 532.12 1.04882 524.884 1.04882 513.446C1.04882 500.029 12.2508 489.77 30.7945 489.77C39.6629 489.77 46.1917 491.638 50.8587 493.742L46.893 508.097C43.7403 506.582 38.1424 504.361 30.4469 504.361C22.7452 504.361 19.0092 507.855 19.0092 511.938C19.0092 516.965 23.4465 519.174 33.5934 523.028C47.4764 528.155 54.0113 535.391 54.0113 546.469C54.0113 559.65 43.8644 570.858 22.2798 570.858C13.2996 570.858 4.43113 568.531 0 566.074L3.61813 551.359Z" fill="#231F20"/>
<path d="M79.8968 505.974H58.7776V491.042H119.212V505.974H97.7454V569.673H79.8968V505.974Z" fill="#231F20"/>
<path d="M137.278 549.491L131.674 569.673H113.242L137.272 491.042H160.607L184.996 569.673H165.863L159.794 549.491H137.278ZM157.224 536.179L152.322 519.497C150.919 514.83 149.523 509.003 148.356 504.336H148.12C146.953 509.003 145.787 514.954 144.502 519.497L139.835 536.179H157.224Z" fill="#231F20"/>
<path d="M194.181 492.091C199.897 491.166 208.412 490.446 217.864 490.446C229.531 490.446 237.692 492.203 243.296 496.64C247.963 500.376 250.532 505.844 250.532 513.08C250.532 523.109 243.414 529.998 236.649 532.443V532.797C242.136 535.012 245.164 540.262 247.15 547.493C249.602 556.373 252.053 566.632 253.567 569.661H235.365C234.08 567.451 232.218 561.022 229.885 551.346C227.787 541.547 224.405 538.86 217.169 538.748H211.807V569.667H194.181V492.091V492.091ZM211.794 525.92H218.795C227.663 525.92 232.907 521.489 232.907 514.607C232.907 507.37 228.004 503.758 219.843 503.634C215.53 503.634 213.079 503.988 211.794 504.224V525.92V525.92Z" fill="#231F20"/>
<path d="M277.218 505.974H256.099V491.042H316.534V505.974H295.067V569.673H277.218V505.974Z" fill="#231F20"/>
<path d="M342.407 491.042V536.303C342.407 549.845 347.539 556.721 356.637 556.721C365.971 556.721 371.104 550.18 371.104 536.303V491.042H388.834V535.136C388.834 559.402 376.584 570.951 356.048 570.951C336.219 570.951 324.552 559.973 324.552 534.894V491.042H342.407Z" fill="#231F20"/>
<path d="M402.928 492.091C408.408 491.166 416.116 490.446 426.965 490.446C437.931 490.446 445.744 492.556 451.001 496.758C456.015 500.73 459.404 507.246 459.404 514.96C459.404 522.656 456.834 529.191 452.167 533.628C446.098 539.35 437.118 541.907 426.617 541.907C424.283 541.907 422.186 541.789 420.547 541.56V569.673H402.935L402.928 492.091ZM420.541 527.788C422.062 528.148 423.924 528.254 426.493 528.254C435.938 528.254 441.778 523.469 441.778 515.426C441.778 508.19 436.758 503.883 427.895 503.883C424.277 503.883 421.826 504.236 420.541 504.571V527.788Z" fill="#231F20"/>
<path d="M558.173 539.574C557.813 530.122 557.472 518.69 557.472 507.246H557.118C554.661 517.281 551.409 528.49 548.368 537.706L538.804 568.376H524.927L516.524 537.929C513.955 528.713 511.268 517.511 509.406 507.246H509.17C508.711 517.865 508.357 529.998 507.761 539.803L506.377 569.673H489.919L494.94 491.042H518.616L526.311 517.288C528.769 526.392 531.22 536.185 532.964 545.401H533.318C535.533 536.297 538.214 525.914 540.784 517.17L549.187 491.036H572.391L576.704 569.673H559.321L558.173 539.574Z" fill="#231F20"/>
<path d="M606.903 491.042V569.673H589.048V491.042H606.903Z" fill="#231F20"/>
<path d="M621.593 551.359C626.372 553.81 633.726 556.256 641.303 556.256C649.47 556.256 653.79 552.873 653.79 547.741C653.79 542.838 650.054 540.039 640.602 536.657C627.544 532.12 619.024 524.884 619.024 513.446C619.024 500.029 630.226 489.77 648.769 489.77C657.644 489.77 664.173 491.638 668.84 493.742L664.855 508.097C661.715 506.582 656.123 504.361 648.415 504.361C640.72 504.361 636.984 507.855 636.984 511.938C636.984 516.965 641.421 519.174 651.568 523.028C665.457 528.155 671.992 535.391 671.992 546.469C671.992 559.65 661.833 570.858 640.261 570.858C631.268 570.858 622.406 568.531 617.969 566.074L621.593 551.359Z" fill="#231F20"/>
<path d="M683.281 551.359C688.066 553.81 695.414 556.256 703.004 556.256C711.159 556.256 715.497 552.873 715.497 547.741C715.497 542.838 711.754 540.039 702.309 536.657C689.251 532.12 680.718 524.884 680.718 513.446C680.718 500.029 691.926 489.77 710.476 489.77C719.344 489.77 725.867 491.638 730.534 493.742L726.568 508.097C723.416 506.582 717.818 504.361 710.122 504.361C702.427 504.361 698.691 507.855 698.691 511.938C698.691 516.965 703.116 519.174 713.275 523.028C727.152 528.155 733.687 535.391 733.687 546.469C733.687 559.65 723.54 570.858 701.955 570.858C692.981 570.858 684.1 568.531 679.675 566.074L683.281 551.359Z" fill="#231F20"/>
<path d="M762.235 491.042V569.673H744.38V491.042H762.235Z" fill="#231F20"/>
<path d="M848.319 529.538C848.319 555.318 832.673 570.958 809.692 570.958C786.358 570.958 772.71 553.339 772.71 530.941C772.71 507.37 787.773 489.758 810.977 489.758C835.131 489.758 848.319 507.842 848.319 529.538ZM791.509 530.587C791.509 545.984 798.732 556.833 810.636 556.833C822.663 556.833 829.533 545.395 829.533 530.109C829.533 515.997 822.769 503.864 810.524 503.864C798.503 503.864 791.509 515.308 791.509 530.587Z" fill="#231F20"/>
<path d="M858.671 569.673V491.042H879.448L895.777 519.857C900.444 528.148 905.11 537.941 908.611 546.816H908.964C907.798 536.427 907.45 525.809 907.45 514.036V491.048H923.778V569.679H905.111L888.311 539.338C883.644 530.935 878.517 520.794 874.664 511.578L874.31 511.696C874.781 522.079 875.011 533.163 875.011 545.991V569.673H858.671V569.673Z" fill="#231F20"/>
<path d="M968.338 543.272C983.114 543.272 995.092 531.294 995.092 516.518C995.092 501.742 983.114 489.764 968.338 489.764C953.562 489.764 941.583 501.742 941.583 516.518C941.583 531.294 953.562 543.272 968.338 543.272Z" stroke="black" stroke-width="0.58" stroke-miterlimit="10"/>
<path d="M958.656 530.997V504.342H970.473C972.85 504.342 974.656 504.584 975.891 505.055C977.126 505.539 978.112 506.383 978.857 507.594C979.602 508.804 979.968 510.144 979.968 511.609C979.968 513.502 979.354 515.097 978.131 516.394C976.908 517.691 975.016 518.516 972.459 518.864C973.39 519.311 974.103 519.758 974.587 520.192C975.618 521.135 976.592 522.321 977.517 523.736L982.153 530.991H977.715L974.19 525.442C973.16 523.841 972.31 522.619 971.646 521.768C970.982 520.918 970.38 520.329 969.858 519.987C969.325 519.646 968.791 519.41 968.245 519.28C967.848 519.193 967.19 519.149 966.284 519.149H962.194V530.984H958.656V530.997ZM962.181 516.102H969.765C971.379 516.102 972.639 515.941 973.545 515.599C974.451 515.271 975.146 514.737 975.618 513.998C976.089 513.272 976.325 512.472 976.325 511.609C976.325 510.349 975.866 509.313 974.947 508.5C974.029 507.687 972.589 507.283 970.615 507.283H962.181V516.102Z" fill="black"/>
</g>
<defs>
<clipPath id="clip0">
<rect width="1024" height="570.958" fill="white"/>
</clipPath>
</defs>
</svg>
