<svg width="130" height="130" viewBox="0 0 130 130" fill="none" xmlns="http://www.w3.org/2000/svg">
<g clip-path="url(#clip0)">
<rect width="130" height="130" rx="10" fill="white"/>
<rect width="130" height="130" fill="white"/>
<rect width="127.084" height="112.929" transform="translate(1 9)" fill="white"/>
<g filter="url(#filter0_d)">
<path fill-rule="evenodd" clip-rule="evenodd" d="M67.5922 21.5961C67.8902 21.6331 68.3772 21.6331 68.6752 21.5961C68.9732 21.5591 68.7302 21.5281 68.1342 21.5281C67.5382 21.5281 67.2942 21.5591 67.5922 21.5961ZM81.1972 33.7251C81.1982 34.8251 81.2252 35.2531 81.2572 34.6771C81.2902 34.1001 81.2902 33.2001 81.2572 32.6771C81.2242 32.1531 81.1972 32.6251 81.1972 33.7251ZM52.0292 55.9751C52.0292 56.9371 52.0562 57.3311 52.0902 56.8501C52.1242 56.3691 52.1242 55.5811 52.0902 55.1001C52.0562 54.6191 52.0292 55.0121 52.0292 55.9751ZM52.0272 60.9751C52.0272 61.8461 52.0552 62.2021 52.0902 61.7671C52.1242 61.3311 52.1242 60.6191 52.0902 60.1831C52.0552 59.7481 52.0272 60.1041 52.0272 60.9751ZM81.1972 68.1421C81.1972 69.1961 81.2242 69.6271 81.2572 69.1001C81.2902 68.5731 81.2902 67.7101 81.2572 67.1831C81.2242 66.6561 81.1972 67.0871 81.1972 68.1421ZM52.0402 78.9751C52.0402 81.5871 52.0632 82.6561 52.0922 81.3501C52.1202 80.0441 52.1202 77.9061 52.0922 76.6001C52.0632 75.2941 52.0402 76.3621 52.0402 78.9751Z" fill="#878787"/>
</g>
<g filter="url(#filter1_d)">
<path fill-rule="evenodd" clip-rule="evenodd" d="M62.0502 21.7191C57.1932 22.3081 53.0372 25.3151 52.2252 28.8291C51.8952 30.2561 51.9622 92.0091 52.2952 93.3081C52.4012 93.7211 52.7992 94.6581 53.1802 95.3922C53.5612 96.1252 54.0832 97.1751 54.3412 97.7251C54.5982 98.2751 54.9682 99.0252 55.1642 99.3922C55.9992 100.96 58.6062 106.06 59.5862 108.044C60.1712 109.228 60.8032 110.411 60.9902 110.674C61.1772 110.937 61.6122 111.81 61.9562 112.615C62.3002 113.42 62.9302 114.654 63.3572 115.357C63.7842 116.06 64.1352 116.731 64.1382 116.847C64.1402 116.963 64.5522 117.808 65.0532 118.725C65.5542 119.642 66.1302 120.749 66.3332 121.186C66.5362 121.623 66.7742 121.956 66.8622 121.927C67.0292 121.871 68.6632 118.762 69.5972 116.725C69.8922 116.083 70.3392 115.181 70.5912 114.721C71.4082 113.231 72.1602 111.486 72.0572 111.319C71.9332 111.118 74.0742 106.808 74.2982 106.808C74.5372 106.808 80.2822 95.1071 80.7632 93.6422C81.3652 91.8062 81.8392 70.7472 81.2902 70.1982C81.1732 70.0812 81.1482 69.3511 81.2162 68.0401C81.4312 63.9211 81.4852 36.0781 81.2782 35.6881C81.1402 35.4271 81.1112 34.6011 81.1812 32.8901C81.3812 27.9421 79.7042 25.0811 75.3832 23.0031C73.4292 22.0631 69.9102 21.2201 69.6362 21.6261C69.5892 21.6961 68.6882 21.6961 67.6342 21.6261C65.1122 21.4581 64.0562 21.4751 62.0502 21.7191ZM70.3842 25.2441C72.2962 25.5591 74.1032 26.3141 75.4232 27.3501C76.4942 28.1921 76.7542 28.5001 77.5262 29.8481L77.9792 30.6381L77.5622 30.4791C77.3332 30.3921 76.8612 30.1771 76.5142 30.0011C74.2252 28.8401 70.8282 28.2251 66.7172 28.2261C63.6482 28.2261 63.0312 28.2881 59.0502 28.9941C57.8762 29.2031 56.5972 29.7061 55.8532 30.2521C55.1202 30.7901 55.0962 30.7531 55.5922 29.8501C57.8842 25.6731 63.1072 24.0471 70.3842 25.2441ZM70.4762 32.0411C74.7762 32.7391 77.5272 34.1521 77.8642 35.8371C78.1282 37.1541 77.9812 41.1521 77.6752 40.9801C73.1162 38.4041 61.6572 37.8911 57.4352 40.0751C57.0422 40.2781 55.5572 40.7971 55.3422 40.8071C55.1382 40.8151 55.3402 35.6931 55.5612 35.2251C56.7892 32.6381 64.2882 31.0371 70.4762 32.0411ZM65.9872 45.1421C66.1652 49.6231 66.1422 79.9561 65.9592 81.2231C65.7472 82.6901 64.5602 84.6181 63.3372 85.4801C62.9042 85.7861 62.2882 86.2671 61.9672 86.5501C61.6462 86.8321 60.4092 87.6081 59.2172 88.2741C58.0252 88.9401 56.9382 89.5481 56.8002 89.6261C56.6632 89.7041 56.2692 89.8881 55.9252 90.0351L55.3002 90.3031V68.1501C55.3002 54.5291 55.3612 45.8361 55.4592 45.5791C56.0982 43.8991 60.2622 42.4631 64.3002 42.5321L65.8842 42.5581L65.9872 45.1421ZM71.3002 42.7421C74.7452 43.1841 77.4332 44.6661 77.7872 46.3171C77.9112 46.8961 77.9672 53.8671 77.9672 68.6411V90.1241L77.4252 89.9361C76.5782 89.6411 72.6242 87.1811 71.8842 86.4871C71.5172 86.1441 70.8532 85.5731 70.4092 85.2191C69.4112 84.4241 68.3642 82.9131 68.1422 81.9491C67.8762 80.7941 67.9082 42.6931 68.1752 42.5851C68.5432 42.4371 69.1722 42.4681 71.3002 42.7421ZM68.5752 86.2471C69.3862 87.0381 70.2382 87.8041 70.4672 87.9491C70.6962 88.0941 71.2592 88.5231 71.7172 88.9011C72.6042 89.6321 76.8892 92.1422 77.2512 92.1422C77.3702 92.1422 77.4672 92.1771 77.4672 92.2201C77.4672 92.4891 70.0642 107.649 69.7072 108.112C69.6842 108.141 69.3402 107.997 68.9412 107.792C67.6532 107.13 65.7872 107.162 64.1242 107.875C63.8522 107.991 62.2142 105.477 61.8412 104.371C61.7442 104.084 61.1822 102.996 60.5922 101.954C60.0022 100.911 59.4712 99.8711 59.4132 99.6422C59.3552 99.4132 58.8182 98.3271 58.2202 97.2291C57.6232 96.1301 57.1342 95.1531 57.1342 95.0571C57.1342 94.9611 56.8342 94.2962 56.4672 93.5791C55.7082 92.0941 55.7222 92.1422 56.0352 92.1422C57.4222 92.1422 62.9022 88.6661 65.5502 86.1071C67.1672 84.5441 66.8122 84.5281 68.5752 86.2471Z" fill="black"/>
</g>
<g filter="url(#filter2_d)">
<path fill-rule="evenodd" clip-rule="evenodd" d="M65.0502 9.28114C64.7752 9.45814 64.2602 9.87414 63.9042 10.2061C63.5492 10.5371 63.1932 10.8081 63.1132 10.8081C63.0332 10.8081 62.9672 10.8681 62.9672 10.9411C62.9672 11.1671 61.6522 12.4961 60.9742 12.9551C60.6202 13.1951 59.8352 13.8601 59.2312 14.4331C58.6272 15.0061 58.0542 15.4751 57.9572 15.4751C57.8602 15.4751 57.8272 15.5501 57.8842 15.6421C57.9402 15.7331 57.8902 15.8081 57.7722 15.8081C57.6542 15.8081 57.2932 16.0681 56.9702 16.3851C55.9922 17.3481 55.4592 17.8081 55.3222 17.8081C55.2502 17.8081 54.9732 18.0711 54.7052 18.3921C54.4382 18.7121 54.1512 18.9751 54.0692 18.9751C53.9862 18.9751 53.7612 19.1271 53.5682 19.3121C53.3752 19.4981 52.9442 19.8911 52.6112 20.1871C52.2782 20.4831 51.6782 21.0301 51.2782 21.4031C50.8782 21.7761 50.4142 22.1321 50.2482 22.1931C50.0732 22.2591 49.9962 22.3881 50.0662 22.5001C50.1322 22.6071 50.1132 22.6491 50.0222 22.5931C49.9332 22.5371 49.7412 22.6191 49.5962 22.7751C49.4512 22.9311 49.0602 23.2831 48.7262 23.5581C47.9772 24.1771 46.5102 25.4591 46.1032 25.8501C45.9372 26.0101 45.7992 26.0851 45.7972 26.0171C45.7952 25.9481 45.6632 26.0481 45.5052 26.2381C45.3472 26.4291 44.6172 27.0651 43.8842 27.6521C43.1502 28.2381 42.2692 29.0071 41.9252 29.3601C41.5822 29.7131 41.3002 29.9621 41.3002 29.9121C41.3002 29.8031 40.6032 30.4101 39.3132 31.6421C38.0402 32.8581 36.9082 33.8721 36.7102 33.9751C36.6222 34.0211 36.5692 34.1151 36.5922 34.1831C36.6152 34.2521 36.5412 34.3081 36.4282 34.3081C36.3152 34.3081 35.8172 34.7401 35.3222 35.2671C34.8262 35.7941 34.4812 36.1131 34.5542 35.9751C34.7092 35.6851 33.8612 36.4271 31.6892 38.4841C31.3072 38.8461 30.9342 39.1421 30.8592 39.1421C30.7852 39.1421 30.4512 39.4231 30.1172 39.7671C29.4872 40.4151 28.4712 41.3081 28.3632 41.3081C28.3292 41.3081 27.8222 41.7671 27.2362 42.3281C26.6502 42.8891 26.1062 43.3551 26.0272 43.3651C25.8072 43.3921 25.3142 43.8141 24.4832 44.6831C24.0682 45.1191 23.6392 45.4751 23.5322 45.4751C23.4242 45.4751 23.2892 45.5981 23.2312 45.7491C23.1732 45.8991 23.0802 45.9761 23.0232 45.9201C22.9662 45.8631 22.6262 46.1291 22.2672 46.5111C21.9072 46.8921 21.3742 47.3801 21.0822 47.5951C20.4732 48.0431 19.0142 49.3041 18.1862 50.1001C17.8762 50.3981 17.5912 50.6421 17.5532 50.6421C17.4822 50.6421 16.3802 51.6301 15.3702 52.6001C15.0602 52.8981 14.7472 53.1421 14.6742 53.1421C14.6012 53.1421 14.4242 53.2731 14.2802 53.4331C14.1372 53.5941 13.6982 53.9871 13.3062 54.3081C12.9142 54.6291 12.4082 55.0791 12.1812 55.3081C11.9542 55.5381 11.6942 55.7251 11.6042 55.7251C11.5142 55.7251 11.3442 55.8561 11.2272 56.0171C11.1102 56.1771 10.9422 56.3081 10.8542 56.3081C10.7662 56.3081 10.5402 56.4771 10.3532 56.6831C10.0372 57.0311 8.40621 58.5031 7.26021 59.4751C6.99021 59.7041 6.60721 60.0481 6.41021 60.2401C6.21221 60.4311 5.84721 60.7191 5.59821 60.8801C5.35021 61.0401 5.10121 61.3151 5.04621 61.4901C4.99021 61.6651 4.83721 61.8081 4.70621 61.8081C4.57421 61.8081 4.46721 61.8831 4.46721 61.9751C4.46721 62.0671 4.39421 62.1421 4.30621 62.1421C4.21721 62.1421 3.88221 62.4041 3.56121 62.7251C3.24121 63.0461 2.93921 63.3081 2.89021 63.3081C2.80921 63.3081 2.65921 63.4281 1.70121 64.2571C1.03121 64.8361 0.744213 66.4281 1.27721 66.6061C1.38121 66.6411 1.46721 66.7641 1.46721 66.8801C1.46721 67.0901 2.41821 67.5911 3.05021 67.7141C3.23421 67.7501 3.59021 67.8591 3.84221 67.9561C4.09421 68.0541 4.30021 68.0951 4.30021 68.0481C4.30021 68.0021 4.46121 68.0491 4.65721 68.1541C4.85321 68.2591 5.24621 68.3811 5.53221 68.4261C5.81721 68.4711 6.17721 68.5761 6.33121 68.6581C6.85721 68.9401 10.5492 70.1931 11.0132 70.2481C11.2682 70.2781 11.8302 70.4441 12.2632 70.6161C12.6962 70.7881 13.4632 71.0631 13.9672 71.2261C14.4712 71.3901 14.9662 71.5881 15.0662 71.6651C15.1662 71.7421 15.3012 71.7521 15.3662 71.6871C15.4322 71.6211 15.5372 71.6441 15.6012 71.7381C15.7682 71.9811 17.8012 72.8281 17.9692 72.7241C18.0472 72.6761 18.1522 72.7031 18.2022 72.7841C18.2522 72.8651 18.5392 72.9891 18.8392 73.0581C19.5202 73.2161 19.4882 73.2061 20.8422 73.6931C21.4612 73.9151 21.9672 74.0711 21.9672 74.0391C21.9672 74.0071 22.2342 74.1311 22.5612 74.3141C22.8882 74.4981 23.2192 74.6091 23.2972 74.5601C23.3752 74.5121 23.4642 74.5341 23.4942 74.6091C23.5392 74.7181 24.9622 75.2021 25.7172 75.3651C25.8092 75.3851 25.9822 75.4631 26.1032 75.5381C26.2242 75.6131 26.3672 75.6311 26.4212 75.5761C26.4752 75.5221 26.6022 75.5441 26.7022 75.6241C26.9432 75.8181 30.1252 77.0131 30.5502 77.0691C30.7342 77.0941 30.8842 77.1261 30.8842 77.1401C30.8842 77.1551 31.0682 77.2001 31.2932 77.2421C31.5182 77.2831 31.7522 77.3961 31.8122 77.4931C31.8722 77.5911 31.9692 77.6641 32.0272 77.6561C32.0862 77.6481 32.1522 77.6481 32.1752 77.6561C32.1982 77.6631 32.3672 77.6931 32.5502 77.7211C32.9622 77.7851 35.4292 78.6771 35.8842 78.9261C36.0672 79.0271 36.2742 79.1151 36.3432 79.1231C36.4122 79.1311 36.7202 79.2431 37.0272 79.3711C37.6482 79.6311 38.6492 79.8891 38.8422 79.8401C38.9112 79.8231 38.9672 79.8751 38.9672 79.9561C38.9672 80.0371 39.1732 80.1431 39.4252 80.1901C40.4772 80.3881 40.8532 80.5081 42.3632 81.1251C43.2352 81.4811 43.9902 81.7301 44.0412 81.6791C44.0922 81.6281 44.1342 81.6861 44.1342 81.8081C44.1342 81.9311 44.1842 81.9801 44.2452 81.9191C44.3072 81.8571 44.5322 81.9221 44.7452 82.0621C44.9592 82.2021 45.1342 82.2681 45.1342 82.2081C45.1342 82.1491 45.2432 82.1911 45.3762 82.3021C45.5102 82.4131 45.6972 82.4551 45.7932 82.3961C45.8892 82.3371 45.9672 82.3811 45.9672 82.4931C45.9672 82.6051 46.0162 82.6481 46.0772 82.5881C46.1372 82.5271 46.2682 82.5411 46.3682 82.6171C46.4682 82.6941 46.9252 82.8551 47.3842 82.9751C47.8422 83.0951 48.2922 83.2461 48.3842 83.3111C48.4752 83.3751 48.9072 83.5471 49.3442 83.6921L50.1382 83.9561L50.1002 83.4661C50.0802 83.1961 49.9992 82.9751 49.9222 82.9751C49.8442 82.9751 49.8262 82.9021 49.8802 82.8141C49.9352 82.7251 49.8222 82.3051 49.6292 81.8811C49.4352 81.4561 49.2662 80.9661 49.2532 80.7921C49.2402 80.6181 49.1582 80.4751 49.0702 80.4751C48.9832 80.4751 48.9552 80.4321 49.0082 80.3791C49.0942 80.2921 48.5202 78.4191 48.1432 77.5581C47.9872 77.2011 47.4982 75.7261 47.3952 75.2991C47.3602 75.1571 47.2242 74.7821 47.0922 74.4661C46.9602 74.1501 46.8002 73.6101 46.7362 73.2671C46.6712 72.9231 46.5432 72.6421 46.4502 72.6421C46.3572 72.6421 46.3292 72.5641 46.3872 72.4701C46.4462 72.3751 46.3382 72.0331 46.1472 71.7101C45.9562 71.3871 45.8002 70.9811 45.8002 70.8091C45.8002 70.6361 45.7352 70.4541 45.6552 70.4051C45.5752 70.3561 45.4622 70.0701 45.4022 69.7701C45.3432 69.4701 45.1152 68.7371 44.8952 68.1421C44.6752 67.5461 44.2972 66.4211 44.0552 65.6421C43.8142 64.8621 43.5002 63.9721 43.3572 63.6621C43.2152 63.3531 43.0622 62.8651 43.0182 62.5791C42.9732 62.2931 42.8372 61.9461 42.7142 61.8081C42.4482 61.5111 42.6762 60.9751 43.0672 60.9751C43.2042 60.9751 43.5452 60.8571 43.8252 60.7121C44.1042 60.5681 44.4572 60.4211 44.6082 60.3861C44.9842 60.3001 49.0972 58.8831 49.7172 58.6271C49.9922 58.5131 50.2542 58.4131 50.3002 58.4041C50.3462 58.3961 50.7402 58.2521 51.1752 58.0851L51.9672 57.7811V55.9411C51.9672 54.3241 51.9372 54.1261 51.7172 54.3081C51.5792 54.4221 51.4672 54.4731 51.4672 54.4211C51.4672 54.3401 49.9082 54.8691 48.4252 55.4531C48.1732 55.5521 47.9672 55.6021 47.9672 55.5631C47.9672 55.5241 47.7052 55.6021 47.3842 55.7351C47.0642 55.8691 46.7652 55.9801 46.7202 55.9811C46.5592 55.9871 46.0472 56.1681 45.7612 56.3201C45.6022 56.4051 45.3362 56.4751 45.1692 56.4751C45.0032 56.4751 44.7962 56.5391 44.7092 56.6171C44.6222 56.6951 44.1752 56.8571 43.7172 56.9761C43.2592 57.0961 42.7902 57.2661 42.6752 57.3551C42.5612 57.4431 42.4672 57.4761 42.4672 57.4281C42.4672 57.3801 41.9612 57.5191 41.3422 57.7381C40.7232 57.9561 40.0832 58.1361 39.9202 58.1381C38.7272 58.1521 38.1762 59.9751 38.8832 61.5721C39.2752 62.4591 39.6192 63.5091 39.7482 64.2101C39.7802 64.3861 39.9612 64.7791 40.1502 65.0851C40.3392 65.3911 40.4482 65.6421 40.3912 65.6421C40.3352 65.6421 40.3712 65.7971 40.4732 65.9861C40.5742 66.1751 40.6862 66.4561 40.7212 66.6111C40.7562 66.7651 41.0572 67.6421 41.3902 68.5581C41.7222 69.4751 42.1372 70.7071 42.3122 71.2971C42.4872 71.8871 42.6872 72.4121 42.7572 72.4641C42.8262 72.5161 42.9092 72.7461 42.9392 72.9751C43.0032 73.4581 43.7962 75.8121 43.9782 76.0581C44.1282 76.2621 44.5372 77.6761 44.4962 77.8501C44.4802 77.9191 44.5422 77.9751 44.6342 77.9751C44.7252 77.9751 44.8002 78.0431 44.8002 78.1261C44.8002 78.2941 43.5122 77.9221 41.7172 77.2371C41.0752 76.9921 40.4752 76.7711 40.3842 76.7461C40.2922 76.7211 39.9222 76.5731 39.5612 76.4171C39.2002 76.2611 38.7322 76.1181 38.5192 76.1011C38.3072 76.0831 38.1342 76.0261 38.1342 75.9741C38.1342 75.9221 38.0022 75.8701 37.8422 75.8581C37.3592 75.8211 35.9822 75.3771 35.0502 74.9561C34.2792 74.6081 32.8812 74.1751 32.7622 74.2491C32.6912 74.2921 32.6342 74.2491 32.6342 74.1521C32.6342 74.0541 32.5302 73.9751 32.4032 73.9751C32.2762 73.9751 31.9622 73.8661 31.7062 73.7341C31.4502 73.6011 31.1762 73.5321 31.0962 73.5821C31.0162 73.6311 30.6892 73.5481 30.3692 73.3961C30.0492 73.2441 29.6552 73.0951 29.4932 73.0631C29.3312 73.0321 28.9222 72.8911 28.5832 72.7491C28.2442 72.6081 27.9672 72.5281 27.9672 72.5731C27.9672 72.6171 27.7982 72.5601 27.5922 72.4451C27.3862 72.3311 27.1792 72.2281 27.1342 72.2171C26.6042 72.0941 25.9952 71.8831 25.6572 71.7081C25.4282 71.5891 25.1792 71.5301 25.1042 71.5771C25.0292 71.6231 24.9672 71.5771 24.9672 71.4751C24.9672 71.3731 24.8972 71.3321 24.8122 71.3851C24.7272 71.4371 24.6122 71.4071 24.5572 71.3181C24.5012 71.2291 24.3462 71.1981 24.2122 71.2501C24.0772 71.3021 23.9672 71.2571 23.9672 71.1501C23.9672 71.0431 23.8892 71.0041 23.7932 71.0631C23.6972 71.1221 23.4362 71.0511 23.2132 70.9041C22.9902 70.7581 22.5992 70.6261 22.3452 70.6101C22.0912 70.5941 21.8092 70.5301 21.7172 70.4671C21.6252 70.4041 21.1572 70.2241 20.6772 70.0681C20.1972 69.9111 19.7682 69.7241 19.7232 69.6521C19.6792 69.5801 19.2842 69.4281 18.8462 69.3161C18.4092 69.2031 17.9002 69.0491 17.7172 68.9731C17.5342 68.8971 16.6712 68.6341 15.8002 68.3881C14.0322 67.8881 13.2862 67.6221 12.0152 67.0371C11.5372 66.8171 11.0872 66.6471 11.0152 66.6591C10.9432 66.6711 10.8272 66.6631 10.7592 66.6411C10.6902 66.6181 10.5772 66.5841 10.5092 66.5651C10.4402 66.5461 10.1592 66.4371 9.88421 66.3241C9.60921 66.2101 9.17721 66.0761 8.92521 66.0251C8.67321 65.9751 8.46721 65.8841 8.46721 65.8241C8.46721 65.7641 8.29321 65.7001 8.08121 65.6821C7.20321 65.6101 6.42221 65.1481 6.66221 64.8421C7.05321 64.3421 7.83121 63.6421 7.99421 63.6421C8.08221 63.6421 8.10721 63.5671 8.05021 63.4751C7.99421 63.3831 8.06321 63.3081 8.20321 63.3081C8.34421 63.3081 8.58221 63.1211 8.73121 62.8931C8.88121 62.6651 9.06321 62.5151 9.13721 62.5601C9.21021 62.6061 9.45921 62.4171 9.69121 62.1421C9.92321 61.8671 10.1582 61.6421 10.2132 61.6421C10.3732 61.6421 10.7772 61.2971 11.8262 60.2671C12.3632 59.7401 12.8482 59.3081 12.9052 59.3081C12.9612 59.3081 13.3262 58.9901 13.7162 58.6001C14.7822 57.5351 16.1342 56.3201 16.1342 56.4271C16.1342 56.4791 16.4682 56.1921 16.8772 55.7901C17.7402 54.9401 18.6342 54.1401 18.6342 54.2161C18.6342 54.2451 18.9742 53.9591 19.3912 53.5801C19.8082 53.2011 20.4262 52.6531 20.7662 52.3621C21.1062 52.0711 21.6662 51.5741 22.0112 51.2571C22.3552 50.9411 22.8992 50.5041 23.2192 50.2871C23.5392 50.0691 23.8452 49.7551 23.8992 49.5871C23.9532 49.4201 24.0362 49.3221 24.0832 49.3691C24.1302 49.4161 24.3352 49.2911 24.5382 49.0901C24.7412 48.8891 25.2362 48.4621 25.6372 48.1421C26.0382 47.8211 26.7902 47.1271 27.3082 46.6001C27.8262 46.0731 28.3292 45.6421 28.4272 45.6421C28.5242 45.6421 28.7932 45.4171 29.0252 45.1421C29.2562 44.8671 29.5072 44.6381 29.5812 44.6351C29.6562 44.6311 29.9012 44.4061 30.1262 44.1351C30.3512 43.8631 30.5892 43.6421 30.6542 43.6421C30.7202 43.6421 31.0802 43.3391 31.4542 42.9691C31.8282 42.5981 32.1342 42.3491 32.1342 42.4151C32.1342 42.4811 32.3592 42.2831 32.6342 41.9751C32.9092 41.6671 33.1342 41.4551 33.1342 41.5031C33.1342 41.5521 33.5612 41.1911 34.0842 40.7001C34.6072 40.2101 35.0982 39.8081 35.1752 39.8081C35.2522 39.8081 35.7112 39.4151 36.1962 38.9331C37.2442 37.8921 37.9672 37.2721 37.9672 37.4131C37.9672 37.4691 38.2592 37.2251 38.6162 36.8701C39.4152 36.0761 39.9322 35.6441 40.5642 35.2381C40.8322 35.0671 41.3662 34.6101 41.7522 34.2241C42.1382 33.8381 42.6622 33.3861 42.9162 33.2191C43.3972 32.9041 44.2392 32.1691 45.3462 31.1001C45.7022 30.7561 46.0392 30.4751 46.0952 30.4751C46.1522 30.4751 46.5912 30.0811 47.0722 29.6001C48.5162 28.1541 49.0952 27.6421 49.2862 27.6421C49.3862 27.6421 49.4672 27.5171 49.4672 27.3641C49.4672 27.2111 49.5082 27.1271 49.5572 27.1761C49.6532 27.2721 50.3062 26.7591 51.2982 25.8081C51.6332 25.4881 52.4582 24.7381 53.1322 24.1421C53.8062 23.5461 54.4942 22.9131 54.6622 22.7351C54.8302 22.5581 54.9672 22.4661 54.9672 22.5331C54.9672 22.5991 55.1892 22.4261 55.4612 22.1471C55.7332 21.8691 56.0022 21.6421 56.0582 21.6421C56.1522 21.6421 56.7552 21.0841 58.0912 19.7611C58.3892 19.4661 58.6322 19.2751 58.6332 19.3371C58.6332 19.3991 58.8422 19.2491 59.0972 19.0041C59.8342 18.2961 60.9872 17.3081 61.0762 17.3081C61.1212 17.3081 61.5092 16.9771 61.9372 16.5721C62.3662 16.1671 62.9392 15.6621 63.2092 15.4501C63.4802 15.2381 63.9142 14.8571 64.1732 14.6031C64.7122 14.0771 64.7362 14.0661 64.7682 14.3501C64.8582 15.1681 64.9902 15.9301 65.0802 16.1421C65.1382 16.2791 65.2122 16.5791 65.2452 16.8081C65.2782 17.0381 65.3952 17.6001 65.5042 18.0581C65.6132 18.5171 65.7102 18.9291 65.7202 18.9751C65.7292 19.0211 65.8032 19.3961 65.8842 19.8081C65.9652 20.2211 66.0442 20.6151 66.0612 20.6831C66.0782 20.7521 66.1012 20.9511 66.1132 21.1261C66.1322 21.4171 66.2862 21.4461 67.8742 21.4621L69.6132 21.4791L69.5352 20.9351C69.3992 19.9891 69.3262 19.5581 69.3002 19.5581C69.2862 19.5581 69.2542 19.3331 69.2292 19.0581C69.1682 18.3951 68.9812 17.3581 68.7962 16.6571C68.7142 16.3451 68.6852 16.0261 68.7332 15.9491C68.7812 15.8721 68.7452 15.8081 68.6532 15.8081C68.5612 15.8081 68.5142 15.6621 68.5492 15.4831C68.5832 15.3041 68.5302 14.8731 68.4292 14.5251C68.3292 14.1771 68.2592 13.7231 68.2722 13.5171C68.2862 13.3101 68.2412 13.1421 68.1732 13.1421C68.1062 13.1421 68.0412 12.9351 68.0302 12.6831C67.9102 9.89314 66.5362 8.32514 65.0502 9.28114ZM81.3882 32.0101C81.3232 32.1671 81.2952 33.0951 81.3272 34.0721L81.3842 35.8491L81.9642 36.2871C82.2832 36.5281 82.7042 36.8941 82.8992 37.1001C83.0952 37.3061 83.3022 37.4751 83.3592 37.4751C83.5742 37.4751 84.1962 38.0961 85.1122 39.2251C86.4602 40.8881 87.5512 42.3801 87.3072 42.2291C87.1792 42.1501 87.1982 42.2521 87.3572 42.4961C87.6392 42.9281 88.6272 45.1951 88.7202 45.6241C88.7532 45.7711 88.9352 46.4901 89.1262 47.2211C89.8762 50.0961 89.6472 53.6631 88.5012 56.9751C88.4532 57.1121 88.4262 57.2811 88.4412 57.3501C88.4552 57.4191 88.3842 57.4751 88.2832 57.4751C88.1812 57.4751 88.1392 57.5821 88.1892 57.7131C88.2392 57.8441 88.1762 58.0371 88.0492 58.1431C87.9222 58.2491 87.7312 58.6101 87.6252 58.9471C87.4252 59.5811 86.2222 61.4981 85.4782 62.3691C84.2972 63.7511 82.0492 65.8081 81.7212 65.8081C81.3312 65.8081 81.0912 69.3871 81.4442 69.9431C81.6272 70.2321 82.9432 69.4601 84.6772 68.0471C84.8392 67.9161 85.0452 67.8081 85.1362 67.8081C85.2262 67.8081 85.3002 67.6911 85.3002 67.5481C85.3002 67.4061 85.3722 67.3331 85.4602 67.3871C85.5472 67.4411 85.7422 67.2991 85.8912 67.0701C86.0412 66.8421 86.3122 66.6071 86.4942 66.5501C86.6772 66.4921 86.7912 66.4101 86.7492 66.3681C86.7072 66.3261 87.0952 65.8511 87.6112 65.3131C88.7832 64.0921 88.9672 63.8661 88.9672 63.6491C88.9672 63.5531 89.0422 63.4751 89.1342 63.4751C89.2252 63.4751 89.3002 63.4071 89.3002 63.3231C89.3002 63.2401 89.4892 62.8841 89.7192 62.5321C89.9502 62.1801 90.1542 61.8171 90.1732 61.7251C90.1932 61.6331 90.3052 61.4461 90.4222 61.3081C90.5402 61.1711 90.6472 60.9831 90.6592 60.8921C90.6722 60.8001 90.8602 60.4441 91.0772 60.1001C91.2942 59.7561 91.4142 59.4741 91.3442 59.4721C91.2742 59.4711 91.2942 59.4151 91.3882 59.3471C92.0332 58.8861 93.0072 53.8411 92.9962 51.0131C92.9912 49.6231 93.0512 48.6741 93.1392 48.7281C93.2232 48.7801 93.4622 48.7151 93.6712 48.5841C93.8792 48.4531 94.3502 48.2561 94.7172 48.1481C95.0842 48.0391 95.4962 47.9061 95.6342 47.8531C95.7712 47.8001 96.0652 47.7271 96.2872 47.6901C96.5082 47.6531 96.9582 47.5001 97.2872 47.3511C97.6152 47.2011 97.9592 47.0701 98.0502 47.0591C98.2972 47.0291 99.0032 46.8081 99.3842 46.6421C100.387 46.2031 102.917 45.2561 103.133 45.2391C103.271 45.2281 103.561 45.1191 103.779 44.9971C104.056 44.8411 104.137 44.8351 104.05 44.9751C103.962 45.1171 104.04 45.1121 104.322 44.9561C104.539 44.8361 104.768 44.7521 104.83 44.7691C104.892 44.7861 105.362 44.6161 105.873 44.3891C106.384 44.1631 106.839 43.9791 106.885 43.9791C106.931 43.9791 107.245 43.8631 107.583 43.7221C108.195 43.4661 108.405 43.5561 108.564 44.1421C108.577 44.1871 108.645 44.4701 108.715 44.7701C108.786 45.0701 108.909 45.3561 108.989 45.4051C109.068 45.4541 109.134 45.6101 109.134 45.7511C109.134 45.8921 109.238 46.2441 109.365 46.5331C109.493 46.8221 109.765 47.6021 109.969 48.2671C110.174 48.9311 110.392 49.4751 110.452 49.4751C110.513 49.4751 110.573 49.6141 110.586 49.7841C110.599 49.9541 110.755 50.4231 110.934 50.8261C111.112 51.2291 111.35 51.8961 111.462 52.3081C111.574 52.7211 111.761 53.2831 111.879 53.5581C111.996 53.8331 112.184 54.3961 112.297 54.8081C112.409 55.2211 112.572 55.6461 112.659 55.7521C112.746 55.8591 112.855 56.1571 112.902 56.4141C112.949 56.6711 113.053 56.9611 113.134 57.0581C113.214 57.1561 113.321 57.4571 113.37 57.7291C113.484 58.3581 114.624 61.4941 114.836 61.7591C114.924 61.8701 114.951 62.0341 114.895 62.1231C114.84 62.2121 114.872 62.3331 114.967 62.3921C115.062 62.4501 115.096 62.5681 115.043 62.6531C114.99 62.7391 115.011 62.8081 115.088 62.8081C115.166 62.8081 115.235 62.9401 115.243 63.1001C115.261 63.4971 116.374 66.7711 116.702 67.3921C116.846 67.6671 116.965 68.0111 116.966 68.1581C116.967 68.3041 117.075 68.6421 117.207 68.9081C117.339 69.1741 117.487 69.6111 117.535 69.8781C117.583 70.1461 117.703 70.4151 117.803 70.4771C117.903 70.5381 117.968 70.6571 117.948 70.7401C117.875 71.0401 118.174 72.1421 118.329 72.1421C118.416 72.1421 118.438 72.2201 118.379 72.3161C118.32 72.4111 118.347 72.5801 118.438 72.6911C118.53 72.8011 118.607 72.9291 118.609 72.9751C118.611 73.0211 118.653 73.1711 118.704 73.3081C118.88 73.7891 119.811 76.5601 119.852 76.7251C119.875 76.8171 119.938 76.9671 119.994 77.0581C120.123 77.2721 120.374 78.3531 120.332 78.5171C120.315 78.5851 120.359 78.6421 120.431 78.6421C120.502 78.6421 120.578 78.8441 120.598 79.0911C120.619 79.3381 120.729 79.5991 120.843 79.6711C120.957 79.7441 120.995 79.8041 120.928 79.8061C120.821 79.8081 121.091 80.6331 121.556 81.7251C121.634 81.9081 121.709 82.1331 121.723 82.2251C121.822 82.8821 122.201 83.9751 122.33 83.9751C122.416 83.9751 122.444 84.0441 122.392 84.1281C122.312 84.2571 122.799 85.8251 123.301 87.0581C124.365 89.6741 124.401 89.9641 123.66 89.9721C123.478 89.9751 121.847 90.4931 120.634 90.9341C120.496 90.9841 120.236 91.0531 120.056 91.0881C119.876 91.1221 119.576 91.2491 119.389 91.3701C119.203 91.4901 118.847 91.6391 118.599 91.7001C118.351 91.7611 117.939 91.9001 117.683 92.0091C117.427 92.1171 117.067 92.2191 116.884 92.2341C116.215 92.2891 115.467 92.5211 115.467 92.6721C115.467 92.7581 115.394 92.7831 115.305 92.7281C115.216 92.6731 114.92 92.7431 114.647 92.8851C114.375 93.0261 113.979 93.1731 113.768 93.2121C113.556 93.2511 113.346 93.2981 113.3 93.3161C113.254 93.3331 113.161 93.3391 113.092 93.3281C113.023 93.3171 112.967 93.3881 112.967 93.4851C112.967 93.5821 112.905 93.6231 112.83 93.5771C112.755 93.5301 112.473 93.6071 112.205 93.7481C111.937 93.8901 111.595 94.0301 111.446 94.0601C111.297 94.0901 110.847 94.2621 110.446 94.4421C110.045 94.6221 109.267 94.8981 108.717 95.0541C108.167 95.2111 107.642 95.3991 107.55 95.4711C107.459 95.5441 107.005 95.6821 106.543 95.7801C106.081 95.8771 105.106 96.1901 104.376 96.4761C103.647 96.7611 102.912 97.0251 102.742 97.0621C102.573 97.0991 101.823 97.3501 101.076 97.6201C100.328 97.8901 99.2672 98.2411 98.7172 98.4001C98.1672 98.5591 97.4172 98.8391 97.0502 99.0231C96.6842 99.2071 96.3462 99.3491 96.3002 99.3381C96.1072 99.2921 94.8382 99.7011 94.2602 99.9961C93.9152 100.171 93.6342 100.274 93.6342 100.224C93.6342 100.174 93.4182 100.245 93.1552 100.381C92.8912 100.517 92.6292 100.581 92.5712 100.524C92.5142 100.466 92.4672 100.51 92.4672 100.621C92.4672 100.732 92.3732 100.808 92.2592 100.789C92.1442 100.771 91.9192 100.805 91.7592 100.865C91.4842 100.969 91.2762 101.036 90.8842 101.146C90.7922 101.172 90.4542 101.304 90.1342 101.438C89.8132 101.572 89.3272 101.718 89.0542 101.761C88.7812 101.805 88.2562 101.994 87.8872 102.182C87.5192 102.37 87.1992 102.515 87.1772 102.504C87.1182 102.474 86.8082 102.572 85.8842 102.911C85.4252 103.079 84.8682 103.222 84.6452 103.229C84.4222 103.236 84.2092 103.332 84.1722 103.443C84.1352 103.553 84.0472 103.608 83.9762 103.564C83.8392 103.48 82.2122 104.008 82.0222 104.198C81.9612 104.259 81.7872 104.308 81.6352 104.308C81.4012 104.308 80.2062 104.737 78.8842 105.296C78.7002 105.374 78.2132 105.534 77.8002 105.653C77.3882 105.771 76.9722 105.926 76.8772 105.997C76.7812 106.067 76.4472 106.17 76.1342 106.225C75.8202 106.28 75.4792 106.396 75.3752 106.482C75.2712 106.568 75.1372 106.589 75.0772 106.529C75.0162 106.469 74.9672 106.505 74.9672 106.609C74.9672 106.713 74.8632 106.758 74.7352 106.709C74.5272 106.629 72.1882 110.918 72.3512 111.081C72.3802 111.11 73.0372 110.932 73.8102 110.686C74.5842 110.439 75.2922 110.232 75.3842 110.227C75.4752 110.221 75.6442 110.157 75.7592 110.086C75.8732 110.014 75.9672 110.006 75.9672 110.068C75.9672 110.129 76.1552 110.057 76.3842 109.907C76.6132 109.757 76.8002 109.667 76.8002 109.706C76.8002 109.746 77.3072 109.588 77.9252 109.356C78.5442 109.123 79.3882 108.818 79.8002 108.677C80.2132 108.537 80.7002 108.365 80.8842 108.295C81.8292 107.936 82.7852 107.682 82.8702 107.767C82.9242 107.82 82.9672 107.768 82.9672 107.652C82.9672 107.535 83.0732 107.48 83.2022 107.529C83.3312 107.579 84.2872 107.281 85.3272 106.868C86.3662 106.454 87.3772 106.084 87.5722 106.046C87.7682 106.007 88.1432 105.863 88.4062 105.726C88.6692 105.589 89.0102 105.477 89.1652 105.476C89.3212 105.475 89.4942 105.4 89.5502 105.308C89.6072 105.217 89.8302 105.142 90.0462 105.142C90.2632 105.142 90.7922 104.991 91.2232 104.806C91.6532 104.621 92.5772 104.278 93.2752 104.044C93.9742 103.81 94.6402 103.539 94.7562 103.443C94.8722 103.346 94.9672 103.315 94.9672 103.373C94.9672 103.432 95.2112 103.378 95.5092 103.253C95.8072 103.129 96.3492 102.971 96.7142 102.903C97.0792 102.835 97.5292 102.695 97.7142 102.593C97.8992 102.491 98.1252 102.403 98.2172 102.398C98.4112 102.387 100.229 101.71 100.717 101.467C100.9 101.376 101.2 101.271 101.384 101.233C101.944 101.118 103.873 100.451 104.05 100.311C104.142 100.239 104.536 100.127 104.925 100.063C105.315 99.9981 105.634 99.8651 105.634 99.7661C105.634 99.6671 105.683 99.6351 105.743 99.6961C105.804 99.7561 105.954 99.7221 106.077 99.6201C106.2 99.5181 106.3 99.4771 106.3 99.5291C106.3 99.5811 106.694 99.4521 107.175 99.2431C107.657 99.0341 108.425 98.7651 108.884 98.6441C109.342 98.5241 109.788 98.3621 109.875 98.2841C109.962 98.2061 110.126 98.1421 110.239 98.1421C110.353 98.1421 110.656 98.0551 110.914 97.9491C111.173 97.8431 111.57 97.7261 111.797 97.6881C112.025 97.6511 112.25 97.5691 112.297 97.5061C112.345 97.4431 112.459 97.3911 112.55 97.3891C112.642 97.3881 113.226 97.2121 113.848 96.9991C114.47 96.7851 115.07 96.5911 115.182 96.5681C115.293 96.5441 115.534 96.4671 115.717 96.3961C115.9 96.3241 116.697 96.0131 117.488 95.7041C118.278 95.3951 118.967 95.1421 119.018 95.1421C119.07 95.1421 119.323 95.0541 119.581 94.9471C119.839 94.8401 120.088 94.7451 120.134 94.7351C120.663 94.6231 123.231 93.6941 123.273 93.6001C123.303 93.5311 123.505 93.4751 123.721 93.4751C123.937 93.4751 124.16 93.4001 124.217 93.3081C124.274 93.2171 124.423 93.1421 124.549 93.1421C124.675 93.1421 124.99 93.0521 125.248 92.9421C125.506 92.8331 125.792 92.7291 125.884 92.7121C125.975 92.6941 126.088 92.6661 126.134 92.6491C126.179 92.6311 126.405 92.5831 126.634 92.5411C126.863 92.4991 127.075 92.3931 127.106 92.3041C127.136 92.2141 127.263 92.1421 127.388 92.1421C128.161 92.1421 128.317 90.8171 127.717 89.3401C127.488 88.7761 127.3 88.2061 127.3 88.0721C127.3 87.9391 127.214 87.6191 127.108 87.3611C127.002 87.1031 126.885 86.7041 126.847 86.4751C126.81 86.2461 126.714 86.0351 126.633 86.0061C126.552 85.9771 126.527 85.8461 126.578 85.7141C126.628 85.5831 126.578 85.4751 126.467 85.4751C126.356 85.4751 126.302 85.3781 126.347 85.2601C126.393 85.1411 126.326 84.9021 126.198 84.7281C126.071 84.5541 125.967 84.2711 125.967 84.0991C125.967 83.9271 125.824 83.4351 125.65 83.0061C125.156 81.7921 125.079 81.5681 125.107 81.4331C125.122 81.3651 125.046 81.3081 124.939 81.3081C124.832 81.3081 124.789 81.2651 124.842 81.2111C124.895 81.1581 124.765 80.6331 124.551 80.0441C124.338 79.4561 124.203 78.9751 124.252 78.9751C124.301 78.9751 124.258 78.8741 124.156 78.7511C124.053 78.6281 124.019 78.4781 124.08 78.4181C124.14 78.3581 124.102 78.3081 123.995 78.3081C123.888 78.3081 123.8 78.1451 123.8 77.9441C123.8 77.7441 123.658 77.2751 123.485 76.9031C122.981 75.8201 122.551 74.5761 122.601 74.3501C122.627 74.2351 122.566 74.1421 122.464 74.1421C122.363 74.1421 122.317 74.0821 122.362 74.0091C122.407 73.9361 122.299 73.5531 122.122 73.1581C121.945 72.7621 121.8 72.3031 121.8 72.1371C121.8 71.9721 121.732 71.8111 121.649 71.7811C121.566 71.7501 121.455 71.4551 121.404 71.1251C121.352 70.7961 121.169 70.1961 120.996 69.7921C120.823 69.3881 120.552 68.6081 120.394 68.0581C120.237 67.5081 120.015 66.9081 119.903 66.7251C119.683 66.3671 119.25 65.0611 119.208 64.6271C119.172 64.2671 118.614 62.7751 118.418 62.5171C118.331 62.4021 118.315 62.3081 118.384 62.3081C118.452 62.3081 118.428 62.2121 118.331 62.0951C118.233 61.9771 118.118 61.6961 118.076 61.4701C117.967 60.8931 117.458 59.4251 117.297 59.2251C117.224 59.1331 117.111 58.7771 117.047 58.4331C116.982 58.0901 116.863 57.8081 116.782 57.8081C116.7 57.8081 116.65 57.7521 116.669 57.6831C116.723 57.4921 115.957 55.0861 115.77 54.8571C115.679 54.7471 115.653 54.5781 115.712 54.4821C115.772 54.3871 115.736 54.3081 115.634 54.3081C115.531 54.3081 115.494 54.2331 115.55 54.1421C115.607 54.0501 115.59 53.9751 115.513 53.9751C115.436 53.9751 115.356 53.7731 115.336 53.5261C115.315 53.2791 115.243 53.0351 115.175 52.9841C115.106 52.9331 115.028 52.7791 115.001 52.6421C114.974 52.5041 114.778 51.9041 114.565 51.3081C114.352 50.7121 114.005 49.6251 113.792 48.8921C113.58 48.1581 113.326 47.4081 113.229 47.2251C113.132 47.0421 113.046 46.8171 113.039 46.7251C113.017 46.4461 112.684 45.4281 112.399 44.7671C112.25 44.4231 112.177 44.1421 112.235 44.1421C112.293 44.1421 112.268 44.0481 112.178 43.9331C112.088 43.8191 111.964 43.4651 111.904 43.1471C111.621 41.6591 110.672 39.8081 110.191 39.8081C110.068 39.8081 109.967 39.7321 109.967 39.6381C109.967 39.3671 107.863 39.7731 107.384 40.1361C107.292 40.2061 106.992 40.3231 106.717 40.3971C105.969 40.5981 105.97 40.5971 105.925 40.6341C105.852 40.6931 105.235 40.8251 104.642 40.9091C104.325 40.9541 103.981 41.0611 103.876 41.1481C103.772 41.2351 103.637 41.2561 103.577 41.1961C103.516 41.1351 103.467 41.1781 103.467 41.2901C103.467 41.4031 103.395 41.4501 103.307 41.3961C103.219 41.3421 103.013 41.3721 102.849 41.4641C102.321 41.7581 100.991 42.3081 100.807 42.3081C100.709 42.3081 100.499 42.3751 100.34 42.4561C99.3882 42.9401 99.2082 42.9981 97.7622 43.3001C97.4202 43.3711 97.0262 43.5241 96.8872 43.6391C96.7482 43.7551 96.6342 43.8001 96.6342 43.7401C96.6342 43.6791 96.4742 43.7151 96.2802 43.8191C96.0852 43.9241 95.7662 44.0311 95.5712 44.0581C95.3762 44.0851 94.5432 44.3781 93.7182 44.7081C92.8942 45.0381 92.2162 45.3081 92.2122 45.3081C92.2082 45.3081 92.1942 45.1771 92.1802 45.0171C92.1322 44.4481 91.6972 43.1341 91.5922 43.2391C91.5332 43.2981 91.4962 43.1941 91.5102 43.0091C91.5322 42.7181 91.0462 41.5541 90.8002 41.3081C90.6662 41.1741 90.3132 40.5961 90.0372 40.0581C89.4972 39.0071 88.8142 37.9871 88.1952 37.3081C87.1822 36.1991 85.3282 34.3081 85.2532 34.3081C85.2072 34.3081 84.9322 34.0871 84.6432 33.8171C84.3532 33.5471 83.9522 33.2741 83.7502 33.2111C83.5492 33.1481 83.3462 33.0471 83.3002 32.9861C83.1042 32.7261 82.1452 32.1421 81.9132 32.1421C81.7752 32.1421 81.6262 32.0481 81.5842 31.9331C81.5302 31.7901 81.4692 31.8151 81.3882 32.0101ZM50.8842 59.4961C50.6092 59.5851 50.1592 59.7581 49.8842 59.8801C49.4722 60.0641 48.1172 60.5001 47.8002 60.5501C47.7542 60.5571 47.6222 60.6241 47.5062 60.6971C47.3902 60.7711 47.0922 60.8681 46.8432 60.9131C45.3392 61.1861 43.9212 63.0151 44.7942 63.5551C44.9622 63.6581 45.2562 64.5361 45.4102 65.3921C45.4592 65.6671 45.5572 65.9291 45.6282 65.9751C45.7622 66.0631 45.9342 66.5371 46.0512 67.1451C46.0902 67.3451 46.1892 67.5951 46.2722 67.7001C46.3552 67.8061 46.4622 68.0791 46.5112 68.3081C46.5602 68.5381 46.6942 68.9871 46.8092 69.3081C47.1142 70.1621 47.1782 70.3621 47.2372 70.6581C47.2672 70.8051 47.4372 71.2661 47.6162 71.6841C47.7952 72.1021 47.8982 72.4891 47.8432 72.5431C47.7892 72.5971 47.8302 72.6421 47.9342 72.6421C48.0382 72.6421 48.0822 72.7481 48.0322 72.8791C47.9822 73.0091 48.0382 73.2901 48.1572 73.5041C48.2752 73.7171 48.3772 73.9291 48.3832 73.9751C48.3892 74.0211 48.6142 74.6211 48.8842 75.3081C49.1532 75.9961 49.3822 76.5961 49.3922 76.6421C49.4032 76.6871 49.5002 76.9381 49.6072 77.1971C49.7152 77.4571 49.7602 77.7381 49.7082 77.8221C49.6562 77.9061 49.6772 77.9751 49.7542 77.9751C49.8312 77.9751 49.9112 78.1741 49.9312 78.4161C49.9512 78.6591 50.0322 78.9411 50.1102 79.0411C50.1892 79.1421 50.2972 79.4581 50.3512 79.7421C50.4052 80.0261 50.6302 80.6631 50.8522 81.1581C51.0742 81.6531 51.3972 82.4331 51.5702 82.8921L51.8842 83.7251L51.9312 81.8081C52.0602 76.6241 51.8572 72.3621 51.4592 71.8821C51.3732 71.7791 51.3532 71.6451 51.4132 71.5851C51.4732 71.5241 51.4312 71.4751 51.3182 71.4751C51.2062 71.4751 51.1542 71.4101 51.2042 71.3301C51.2532 71.2501 51.1082 70.8191 50.8812 70.3711C50.6542 69.9241 50.4682 69.4411 50.4682 69.2991C50.4672 69.1561 50.3632 68.8961 50.2362 68.7221C50.1082 68.5481 50.0422 68.3081 50.0882 68.1881C50.1332 68.0691 50.0882 67.8711 49.9872 67.7491C49.8862 67.6271 49.8532 67.4781 49.9132 67.4181C49.9732 67.3581 49.9352 67.3081 49.8282 67.3081C49.7212 67.3081 49.6432 67.2521 49.6532 67.1831C49.6642 67.1151 49.6592 67.0211 49.6412 66.9751C49.6232 66.9291 49.5752 66.7101 49.5352 66.4881C49.4942 66.2661 49.3842 65.9931 49.2912 65.8811C49.1982 65.7681 49.1392 65.6131 49.1602 65.5341C49.2312 65.2641 48.9402 64.3081 48.7872 64.3081C48.2712 64.3081 49.2502 63.6571 49.8842 63.5791C49.9752 63.5681 50.4822 63.3761 51.0092 63.1531L51.9672 62.7471V61.0281C51.9672 59.1361 51.9732 59.1441 50.8842 59.4961Z" fill="#878787"/>
</g>
</g>
<defs>
<filter id="filter0_d" x="48.0272" y="21.5281" width="37.2548" height="68.3793" filterUnits="userSpaceOnUse" color-interpolation-filters="sRGB">
<feFlood flood-opacity="0" result="BackgroundImageFix"/>
<feColorMatrix in="SourceAlpha" type="matrix" values="0 0 0 0 0 0 0 0 0 0 0 0 0 0 0 0 0 0 127 0" result="hardAlpha"/>
<feOffset dy="4"/>
<feGaussianBlur stdDeviation="2"/>
<feComposite in2="hardAlpha" operator="out"/>
<feColorMatrix type="matrix" values="0 0 0 0 0 0 0 0 0 0 0 0 0 0 0 0 0 0 0.25 0"/>
<feBlend mode="normal" in2="BackgroundImageFix" result="effect1_dropShadow"/>
<feBlend mode="normal" in="SourceGraphic" in2="effect1_dropShadow" result="shape"/>
</filter>
<filter id="filter1_d" x="48.009" y="21.5154" width="37.5236" height="108.414" filterUnits="userSpaceOnUse" color-interpolation-filters="sRGB">
<feFlood flood-opacity="0" result="BackgroundImageFix"/>
<feColorMatrix in="SourceAlpha" type="matrix" values="0 0 0 0 0 0 0 0 0 0 0 0 0 0 0 0 0 0 127 0" result="hardAlpha"/>
<feOffset dy="4"/>
<feGaussianBlur stdDeviation="2"/>
<feComposite in2="hardAlpha" operator="out"/>
<feColorMatrix type="matrix" values="0 0 0 0 0 0 0 0 0 0 0 0 0 0 0 0 0 0 0.25 0"/>
<feBlend mode="normal" in2="BackgroundImageFix" result="effect1_dropShadow"/>
<feBlend mode="normal" in="SourceGraphic" in2="effect1_dropShadow" result="shape"/>
</filter>
<filter id="filter2_d" x="-3" y="9" width="135.084" height="110.084" filterUnits="userSpaceOnUse" color-interpolation-filters="sRGB">
<feFlood flood-opacity="0" result="BackgroundImageFix"/>
<feColorMatrix in="SourceAlpha" type="matrix" values="0 0 0 0 0 0 0 0 0 0 0 0 0 0 0 0 0 0 127 0" result="hardAlpha"/>
<feOffset dy="4"/>
<feGaussianBlur stdDeviation="2"/>
<feComposite in2="hardAlpha" operator="out"/>
<feColorMatrix type="matrix" values="0 0 0 0 0 0 0 0 0 0 0 0 0 0 0 0 0 0 0.25 0"/>
<feBlend mode="normal" in2="BackgroundImageFix" result="effect1_dropShadow"/>
<feBlend mode="normal" in="SourceGraphic" in2="effect1_dropShadow" result="shape"/>
</filter>
<clipPath id="clip0">
<rect width="130" height="130" rx="10" fill="white"/>
</clipPath>
</defs>
</svg>
