<svg xmlns="http://www.w3.org/2000/svg" xmlns:xlink="http://www.w3.org/1999/xlink" width="500" height="500" viewBox="0 0 500 500">
  <defs>
    <clipPath id="clip-path">
      <path id="path4755" d="M98.509-163.836h54.866v54.866H98.509Z" transform="translate(-98.509 163.836)"/>
    </clipPath>
    <clipPath id="clip-path-2">
      <path id="path5035" d="M9.957-75.066H39.615v29.534H9.957Z" transform="translate(-9.957 75.066)"/>
    </clipPath>
    <clipPath id="clip-path-3">
      <path id="path5079" d="M14.836-109.845h52.91V-5.365H14.836Z" transform="translate(-14.836 109.845)"/>
    </clipPath>
    <clipPath id="clip-path-4">
      <path id="path5299" d="M10.292-54.919h149.7v89.6H10.292Z" transform="translate(-10.292 54.919)"/>
    </clipPath>
    <clipPath id="clip-path-5">
      <path id="path5331" d="M33.081-32.956H51.3V-19.83H33.081Z" transform="translate(-33.081 32.956)"/>
    </clipPath>
    <clipPath id="clip-path-6">
      <path id="path5379" d="M28.847-43.014H49.455v7.674H28.847Z" transform="translate(-28.847 43.014)"/>
    </clipPath>
    <clipPath id="clip-path-7">
      <path id="path4991" d="M52.91-26.75H82.568V2.784H52.91Z" transform="translate(-52.91 26.75)"/>
    </clipPath>
    <clipPath id="clip-path-8">
      <path id="path5135" d="M79.955-36.445h77.169V1.974H79.955Z" transform="translate(-79.955 36.445)"/>
    </clipPath>
    <clipPath id="clip-path-9">
      <path id="path5171" d="M87.823-35.071h51.306V-6.529H87.823Z" transform="translate(-87.823 35.071)"/>
    </clipPath>
    <clipPath id="clip-path-10">
      <path id="path4903" d="M141.681-23.581h16.711V-6.94H141.681Z" transform="translate(-141.681 23.581)"/>
    </clipPath>
    <clipPath id="clip-path-11">
      <path id="path4947" d="M153-24.386h16.711V-7.745H153Z" transform="translate(-152.998 24.386)"/>
    </clipPath>
    <clipPath id="clip-path-12">
      <path id="path5403" d="M109.243-70.406H220.118V51.817H109.243Z" transform="translate(-109.243 70.406)"/>
    </clipPath>
    <clipPath id="clip-path-13">
      <path id="path5511" d="M112.311-69.733h11.616v15.059H112.311Z" transform="translate(-112.311 69.733)"/>
    </clipPath>
    <clipPath id="clip-path-14">
      <path id="path4859" d="M149.823-35.852h16.711V-19.21H149.823Z" transform="translate(-149.823 35.852)"/>
    </clipPath>
    <clipPath id="clip-path-15">
      <path id="path5479" d="M130.862-62.427h42.963V-31.46H130.862Z" transform="translate(-130.862 62.427)"/>
    </clipPath>
    <clipPath id="clip-path-16">
      <path id="path5495" d="M129.157-49.345h20.079V23.119H129.157Z" transform="translate(-129.157 49.345)"/>
    </clipPath>
    <clipPath id="clip-path-17">
      <path id="path5199" d="M126.951-128h67.3v98.22h-67.3Z" transform="translate(-126.951 127.999)"/>
    </clipPath>
    <clipPath id="clip-path-18">
      <path id="path4815" d="M147.454-81.577h29.658v29.534H147.454Z" transform="translate(-147.454 81.577)"/>
    </clipPath>
    <clipPath id="clip-path-19">
      <path id="path4691" d="M0,0H73.754V51.144H0Z"/>
    </clipPath>
    <clipPath id="clip-path-20">
      <path id="path4727" d="M0,0H49.643V36.542H0Z"/>
    </clipPath>
    <clipPath id="clip-path-21">
      <path id="path5267" d="M0,0H65.112V72.013H0Z"/>
    </clipPath>
    <clipPath id="clip-path-22">
      <path id="path4599" d="M10.629-162.954H95.31v97.7H10.629Z" transform="translate(-10.629 162.954)"/>
    </clipPath>
    <clipPath id="clip-iedc-crafts">
      <rect width="500" height="500"/>
    </clipPath>
  </defs>
  <g id="iedc-crafts" clip-path="url(#clip-iedc-crafts)">
    <g id="Paper" transform="translate(133.456 97.04)">
      <g id="g4531" transform="translate(2.815)">
        <path id="path4533" d="M171.661,0h-4.527V.018H-111.3V0h-4.527V287.486h.172v.021H171.337v-.021h.324Z" transform="translate(115.822)" fill="#e2e2ff"/>
      </g>
      <path id="path4535" d="M326.213-138.123H33.567V-142.4H326.213Z" transform="translate(-33.512 144.93)" fill="#fff"/>
      <path id="path4537" d="M326.222-129.212H33.577v-4.272H326.222Z" transform="translate(-33.498 159.249)" fill="#fff"/>
      <path id="path4539" d="M326.231-120.3H33.585v-4.272H326.231Z" transform="translate(-33.485 173.568)" fill="#fff"/>
      <path id="path4541" d="M326.24-111.392H33.595v-4.272H326.24Z" transform="translate(-33.471 187.887)" fill="#fff"/>
      <path id="path4543" d="M326.25-102.481H33.6v-4.272H326.25Z" transform="translate(-33.457 202.206)" fill="#fff"/>
      <path id="path4545" d="M326.258-93.571H33.613v-4.272H326.258Z" transform="translate(-33.443 216.525)" fill="#fff"/>
      <path id="path4547" d="M326.268-84.66H33.622v-4.272H326.268Z" transform="translate(-33.43 230.844)" fill="#fff"/>
      <path id="path4549" d="M326.21-75.741H33.564v-4.273H326.21Z" transform="translate(-33.516 245.177)" fill="#fff"/>
      <path id="path4551" d="M326.219-66.83H33.573V-71.1H326.219Z" transform="translate(-33.502 259.497)" fill="#fff"/>
      <path id="path4553" d="M326.228-57.92H33.583v-4.273H326.228Z" transform="translate(-33.489 273.816)" fill="#fff"/>
      <path id="path4555" d="M326.238-49.009H33.592v-4.273H326.238Z" transform="translate(-33.475 288.135)" fill="#fff"/>
      <path id="path4557" d="M326.247-40.1H33.6v-4.273H326.247Z" transform="translate(-33.462 302.455)" fill="#fff"/>
      <path id="path4559" d="M326.256-30.541H33.61v-4.272H326.256Z" transform="translate(-33.448 321.948)" fill="#fff"/>
      <path id="path4561" d="M37.817,128.9H33.545V-142.4h4.272Z" transform="translate(-33.545 151.727)" fill="#fff"/>
      <path id="path4563" d="M46.728,127.368H42.455V-142.256h4.272Z" transform="translate(-15.035 151.879)" fill="#fff"/>
      <path id="path4565" d="M55.638,127.358H51.366V-142.266h4.272Z" transform="translate(-0.716 151.862)" fill="#fff"/>
      <path id="path4567" d="M64.549,127.35H60.276V-142.275h4.272Z" transform="translate(13.603 151.845)" fill="#fff"/>
      <path id="path4569" d="M73.459,127.34H69.187V-142.284h4.272Z" transform="translate(27.923 151.829)" fill="#fff"/>
      <path id="path4571" d="M82.369,127.331H78.1V-142.294h4.272Z" transform="translate(42.241 151.812)" fill="#fff"/>
      <path id="path4573" d="M91.28,127.323H87.008V-142.3H91.28Z" transform="translate(56.561 151.796)" fill="#fff"/>
      <path id="path4575" d="M100.2,127.38H95.927V-142.244H100.2Z" transform="translate(70.894 151.9)" fill="#fff"/>
      <path id="path4577" d="M109.11,127.372h-4.272V-142.254h4.272Z" transform="translate(85.213 151.884)" fill="#fff"/>
      <path id="path4579" d="M118.019,127.375h-4.273V-142.249h4.273Z" transform="translate(99.529 151.892)" fill="#fff"/>
      <path id="path4581" d="M126.928,127.377h-4.273V-142.248h4.273Z" transform="translate(113.846 151.894)" fill="#fff"/>
      <path id="path4583" d="M135.843,127.373H131.57V-142.251h4.272Z" transform="translate(128.174 151.888)" fill="#fff"/>
      <path id="path4585" d="M145.4,128.9h-4.272V-142.4H145.4Z" transform="translate(147.717 151.727)" fill="#fff"/>
    </g>
    <g id="Tape" transform="translate(274.993 388.447)">
      <g id="g4751" transform="translate(0 4.203)">
        <g id="g4765">
          <g id="g4763" opacity="0.2" clip-path="url(#clip-path)">
            <g id="g4761" transform="translate(-0.001 0)">
              <path id="path4759" d="M6.926,13.687A13.823,13.823,0,1,1,20.748,27.51,13.839,13.839,0,0,1,6.926,13.687m13.48,27.29A27.433,27.433,0,1,0-7.028,13.544,27.434,27.434,0,0,0,20.405,40.977" transform="translate(7.028 13.889)" fill="#4c466f"/>
            </g>
          </g>
        </g>
      </g>
      <g id="g4767" transform="translate(0 0)">
        <path id="path4769" d="M13.786,21.417A15.574,15.574,0,1,1,29.36,5.843,15.574,15.574,0,0,1,13.786,21.417m-.343-43.15A27.433,27.433,0,1,0,40.877,5.7,27.434,27.434,0,0,0,13.443-21.733" transform="translate(13.99 21.733)" fill="#517597"/>
      </g>
      <g id="g4775" transform="translate(2.481 27.783)">
        <path id="path4777" d="M0,0A28.48,28.48,0,0,0,5.954,14.942c5.72,7.471,11.44,7.588,11.44,7.588A26.06,26.06,0,0,1,4.553,11.324C0,3.035,0,0,0,0" transform="translate(0 0)" fill="#38607e"/>
      </g>
      <g id="g4787" transform="translate(6.35 17.948)">
        <path id="path4789" d="M.658,8S-3.194-2.248,2.234-8.114A15,15,0,0,0-.173-1.066,30.835,30.835,0,0,0,.658,8" transform="translate(0.668 8.114)" fill="#38607e"/>
      </g>
      <g id="g4791" transform="translate(10.452 10.251)">
        <path id="path4793" d="M8.6,15.46A13.838,13.838,0,0,1-5.224,1.637a13.823,13.823,0,1,1,27.645,0A13.838,13.838,0,0,1,8.6,15.46m0-31.148A17.345,17.345,0,0,0-8.726,1.637a17.325,17.325,0,0,0,34.65,0A17.345,17.345,0,0,0,8.6-15.688" transform="translate(8.726 15.688)" fill="#aca8ee"/>
      </g>
      <g id="g4803" transform="translate(1.196 3.09)">
        <path id="path4805" d="M.522,10.414A1.018,1.018,0,0,1,.357,10.4,1.049,1.049,0,0,1-.517,9.2,28.613,28.613,0,0,1,14.105-10.451,1.05,1.05,0,0,1,15.52-10a1.05,1.05,0,0,1-.45,1.416C3.628-2.669,1.578,9.408,1.558,9.528a1.05,1.05,0,0,1-1.036.886" transform="translate(0.53 10.569)" fill="#fff"/>
      </g>
      <g id="g4771" transform="translate(11.703 3.9)">
        <path id="path4773" d="M0,4.206A20.092,20.092,0,0,1,14.592-4.2c9.806-.817,16.46,5.837,16.46,5.837s-5.72-5.72-14.008-5.253S5.136-.814,0,4.206" transform="translate(0 4.268)" fill="#38607e"/>
      </g>
      <g id="g4779" transform="translate(34.7 8.639)">
        <path id="path4781" d="M0,0A17.914,17.914,0,0,1,7.354,3.91c2.8,2.8,3.969,7.413,3.969,7.413s-2.1-5.837-5.02-7.88A37.817,37.817,0,0,0,0,0" transform="translate(0 0)" fill="#38607e"/>
      </g>
      <g id="g4783" transform="translate(34.35 25.565)">
        <path id="path4785" d="M0,11.124S9.105,9.957,13.191,1.319s1.985-12.608,1.985-12.608A24.813,24.813,0,0,1,13.366-.725C11.09,4.879,5.9,9.14,0,11.124" transform="translate(0 11.289)" fill="#38607e"/>
      </g>
      <g id="g4795" transform="translate(10.92 15.868)">
        <path id="path4797" d="M.522,6.408H.481A1.051,1.051,0,0,1-.529,5.318c.011-.289.318-7.134,4.481-11.5a1.053,1.053,0,0,1,1.486-.035,1.051,1.051,0,0,1,.034,1.486C1.853-.935,1.573,5.334,1.571,5.4A1.051,1.051,0,0,1,.522,6.408" transform="translate(0.53 6.503)" fill="#fff"/>
      </g>
      <g id="g4799" transform="translate(17.598 11.904)">
        <path id="path4801" d="M.522,1.941A1.051,1.051,0,0,1-.173.1,10.387,10.387,0,0,1,3.956-1.941a1.05,1.05,0,0,1,1.265.78A1.052,1.052,0,0,1,4.441.1,8.4,8.4,0,0,0,1.215,1.679a1.045,1.045,0,0,1-.693.262" transform="translate(0.529 1.97)" fill="#fff"/>
      </g>
      <g id="g4807" transform="translate(18.699 0.497)">
        <path id="path4809" d="M.522,1.619a1.051,1.051,0,0,1-.4-2.024A18.534,18.534,0,0,1,5.756-1.641,1.041,1.041,0,0,1,6.84-.624,1.051,1.051,0,0,1,5.823.459,16.648,16.648,0,0,0,.916,1.541a1.056,1.056,0,0,1-.394.077" transform="translate(0.53 1.642)" fill="#fff"/>
      </g>
    </g>
    <g id="Paint" transform="translate(414.289 67.847)">
      <g id="g5031" transform="translate(0 73.254)">
        <g id="g5045">
          <g id="g5043" opacity="0.2" clip-path="url(#clip-path-2)">
            <g id="g5041" transform="translate(0 0)">
              <path id="path5039" d="M3.206,13.333A14.8,14.8,0,0,0,23.815,9.706a14.8,14.8,0,0,0-3.871-20.564A14.8,14.8,0,0,0-.664-7.232,14.8,14.8,0,0,0,3.206,13.333" transform="translate(3.254 13.53)" fill="#4c466f"/>
            </g>
          </g>
        </g>
      </g>
      <g id="g5047" transform="translate(0 69.051)">
        <path id="path5049" d="M13.435,11.533A14.8,14.8,0,0,1-7.174,15.159,14.8,14.8,0,0,1-11.045-5.406,14.8,14.8,0,0,1,9.564-9.032a14.8,14.8,0,0,1,3.871,20.564" transform="translate(13.634 11.703)" fill="#aca8ee"/>
      </g>
      <g id="g5075" transform="translate(9.685 4.203)">
        <g id="g5089">
          <g id="g5087" opacity="0.2" clip-path="url(#clip-path-3)">
            <g id="g5085" transform="translate(0 0)">
              <path id="path5083" d="M8.257,22.116,8.488,22a163.922,163.922,0,0,0,16.6,33.491c14.738,22.882,16.879,27.96,19.254,26.242,2.209-1.6-15.385-50.853-24.8-65.359l.1-.053L11.684,3.324l-.833.445c.179-.974.9-6.147-2.468-12.841C4.636-16.514-12.578-26.743-7.424-20.519S-8.12-5.334-6.381-.191C-4.792,4.508,1.862,7.483,3,7.963l-.519.277Z" transform="translate(8.379 22.443)" fill="#4c466f"/>
            </g>
          </g>
        </g>
      </g>
      <g id="g5091" transform="translate(9.685)">
        <path id="path5093" d="M5.733,15.126S-2.081,12.046-3.82,6.9.291-7.2-4.862-13.426s12.059,4,15.8,11.447,2.433,13.021,2.433,13.021-4.232,4.021-7.643,4.084" transform="translate(5.818 15.35)" fill="#ffa059"/>
      </g>
      <g id="g5103" transform="translate(21.633 10.943)">
        <path id="path5105" d="M0,0S4.2,1.051,5.545,6.771a36.389,36.389,0,0,1,1.167,9.164l-.291.35s-.642-9.573-2.16-12.2A12.06,12.06,0,0,0,0,0" transform="translate(0 0)" fill="#e57622"/>
      </g>
      <g id="g5107" transform="translate(23.467 29.495)">
        <path id="path5109" d="M.23,3.218S4.713,22.29,19.452,45.171s16.879,27.96,19.254,26.242-18.12-58.469-26.753-68S-1.862-4.791.23,3.218" transform="translate(0.233 3.265)" fill="#fe7ac2"/>
      </g>
      <g id="g5111" transform="translate(29.046 41.992)">
        <path id="path5113" d="M0,1.738A99.989,99.989,0,0,0,12.958,29.054c9.105,13.133,16.11,28.192,17.686,28.367S16.635,18.023,12.783,9.968A73.663,73.663,0,0,0,6.129-1.764Z" transform="translate(0 1.764)" fill="#ff89df"/>
      </g>
      <g id="g5115" transform="translate(36.225 40.591)">
        <path id="path5117" d="M3.3,6.605a1.051,1.051,0,0,1-.963-.629C-.063.484-3.186-5.081-3.217-5.137a1.05,1.05,0,0,1,.4-1.43,1.049,1.049,0,0,1,1.43.4c.032.056,3.206,5.713,5.65,11.3a1.051,1.051,0,0,1-.541,1.384,1.039,1.039,0,0,1-.42.088" transform="translate(3.352 6.703)" fill="#fff"/>
      </g>
      <g id="g5119" transform="translate(20.547 25.767)">
        <path id="path5121" d="M0,2.44,5.774,16.316l11.394-5.8L9.2-2.476Z" transform="translate(0 2.476)" fill="#cdacd4"/>
      </g>
      <g id="g5123" transform="translate(23.734 29.618)">
        <path id="path5125" d="M0,1.449l3.619,9.222,7.237-3.852L5.72-1.47Z" transform="translate(0 1.47)" fill="#dab9e2"/>
      </g>
      <g id="g5127" transform="translate(29.746 29.15)">
        <path id="path5129" d="M2.608,4.722a1.049,1.049,0,0,1-.915-.533l-4.2-7.413a1.05,1.05,0,0,1,.4-1.432,1.05,1.05,0,0,1,1.432.4l4.2,7.413a1.051,1.051,0,0,1-.913,1.569" transform="translate(2.646 4.792)" fill="#fff"/>
      </g>
      <g id="g5051" transform="translate(5.129 74.085)">
        <path id="path5053" d="M8.8,7.551A9.689,9.689,0,0,1-4.7,9.926,9.69,9.69,0,0,1-7.232-3.539,9.69,9.69,0,0,1,6.263-5.914,9.689,9.689,0,0,1,8.8,7.551" transform="translate(8.927 7.663)" fill="#bebeff"/>
      </g>
      <g id="g5055" transform="translate(13.814 80.846)">
        <path id="path5057" d="M.727.643A.836.836,0,0,1-.419.915.836.836,0,0,1-.569-.253.836.836,0,0,1,.577-.525.835.835,0,0,1,.727.643" transform="translate(0.738 0.653)" fill="#fefefe"/>
      </g>
      <g id="g5059" transform="translate(16.478 82.689)">
        <path id="path5061" d="M.727.643A.836.836,0,0,1-.419.915.835.835,0,0,1-.569-.253.835.835,0,0,1,.577-.525.835.835,0,0,1,.727.643" transform="translate(0.738 0.653)" fill="#fefefe"/>
      </g>
      <g id="g5063" transform="translate(11.996 83.421)">
        <path id="path5065" d="M.727.643A.835.835,0,0,1-.419.915.836.836,0,0,1-.569-.253.836.836,0,0,1,.577-.525.835.835,0,0,1,.727.643" transform="translate(0.738 0.653)" fill="#fefefe"/>
      </g>
      <g id="g5067" transform="translate(14.66 85.264)">
        <path id="path5069" d="M.727.643A.836.836,0,0,1-.419.915.835.835,0,0,1-.569-.253.835.835,0,0,1,.577-.525.835.835,0,0,1,.727.643" transform="translate(0.738 0.653)" fill="#fefefe"/>
      </g>
      <g id="g5071" transform="translate(3.163 70.32)">
        <path id="path5073" d="M.521,3.941A1.05,1.05,0,0,1-.418,2.422c.039-.078,4.007-7.815,12.075-6.2a1.05,1.05,0,0,1,.824,1.236,1.046,1.046,0,0,1-1.236.824C4.77-3.016,1.593,3.1,1.461,3.364a1.054,1.054,0,0,1-.94.577" transform="translate(0.529 4)" fill="#fff"/>
      </g>
      <g id="g5095" transform="translate(14.923 13.891)">
        <path id="path5097" d="M4.243,7.981A15.159,15.159,0,0,1-2.79,1.357,16.4,16.4,0,0,1-4.1-8.1S-4.629-2.467-2,1.735a15.106,15.106,0,0,0,7.121,5.75Z" transform="translate(4.306 8.099)" fill="#e57622"/>
      </g>
      <g id="g5099" transform="translate(13.987 6.594)">
        <path id="path5101" d="M5.606,10.994A20.5,20.5,0,0,0,2.541.663C-.7-4.678-5.076-7.742-5.689-11.157A29.133,29.133,0,0,0-2.362-6.692C.177-3.715,4.409-.738,6.452,10.352Z" transform="translate(5.689 11.157)" fill="#e57622"/>
      </g>
    </g>
    <g id="Scissors" transform="translate(11.355 400.615)">
      <g id="g5295" transform="translate(0 4.202)">
        <g id="g5309">
          <g id="g5307" opacity="0.2" clip-path="url(#clip-path-4)">
            <g id="g5305" transform="translate(0 0)">
              <path id="path5303" d="M19.149,39.118c-5.914,4.273-13.089,4.44-16.028.373s-6.407-7.944-.494-12.216S21.344,18.3,24.282,22.366s.78,12.479-5.133,16.752M-6.46-.051c-7.293.162-6.867-5.023-6.978-10.039S-7.727-19.3-.433-19.466s14.091,5.245,14.2,10.26S.834-.213-6.46-.051M62.776-2.609c17.461-3.99,66.982-16.685,66.982-16.685,4.436-1.528-21.167,1.054-44.878,3.754,20.515-12.146,42.431-25.5,37.977-24.047,0,0-46.954,19.681-63.377,27.073-2.72.342-5.065.646-6.922.9a3.367,3.367,0,0,0-3.046-1.231c-3.007.716-7.929,1.772-9.89,2.19a16.59,16.59,0,0,0-.843-2.234c-.75-1.577-11.713.976-16.623-.621S7.741-28.428-2.965-27.137-16.441-19.9-18.629-14.3C-20.9-8.492-17.834,5.094-16,5.494S38.441-5.312,38.441-5.312A1.8,1.8,0,0,0,39.9-6.486c4.675-.691,9.468.953,12.122,1.943l-.006.039C50.5-2.127,47.659,2.136,43.474,4.431a1.8,1.8,0,0,0-1.869-.059S-7.111,27.188-8.329,28.612s4.911,13.566,9.852,17.367c4.8,3.692,10.923,6.216,20.238.784S30.618,24.977,33.569,20.74,46.8,11.923,46.449,10.212a16.709,16.709,0,0,0-.675-2.29c1.808-.847,6.371-2.977,9.206-4.222A3.368,3.368,0,0,0,56.665.879c1.645-.926,3.714-2.108,6.11-3.488" transform="translate(19.432 39.697)" fill="#4c466f"/>
            </g>
          </g>
        </g>
      </g>
      <g id="g5311" transform="translate(71.089)">
        <path id="path5313" d="M35.338.054S-31.33,28-33.576,29.8s-3.094,13.329-1.363,12.917S43.311-2.553,35.338.054" transform="translate(35.861 0.055)" fill="#517597"/>
      </g>
      <g id="g5315" transform="translate(62.76 33.252)">
        <path id="path5317" d="M4.884.122C4.228.574.945,7.695-4.956,10.838l1.662,3.774S3.1,11.6,6.7,10.021,7.73-1.833,4.884.122" transform="translate(4.956 0.124)" fill="#517597"/>
      </g>
      <g id="g5319" transform="translate(91.945 13.664)">
        <path id="path5321" d="M.522,5.215a1.051,1.051,0,0,1-.441-2L18.292-5.2a1.051,1.051,0,0,1,1.394.513,1.051,1.051,0,0,1-.514,1.395L.961,5.118a1.043,1.043,0,0,1-.439.1" transform="translate(0.53 5.292)" fill="#fff"/>
      </g>
      <g id="g5323" transform="translate(10.946 43.836)">
        <path id="path5325" d="M13.716,17.361C7.8,21.634.627,21.8-2.312,17.734S-8.719,9.79-2.806,5.518,15.911-3.458,18.849.609s.78,12.479-5.133,16.752m27.3-28.906c-.354-1.71-2.045-7.27-4.844-5.84,0,0-48.716,22.816-49.934,24.24S-8.852,20.421-3.91,24.222c4.8,3.692,10.923,6.216,20.238.784S25.186,3.219,28.136-1.017,41.37-9.834,41.016-11.545" transform="translate(13.919 17.618)" fill="#f49f44"/>
      </g>
      <g id="g5327" transform="translate(45.246 47.81)">
        <g id="g5341">
          <g id="g5339" opacity="0.15" clip-path="url(#clip-path-5)">
            <g id="g5337" transform="translate(0 0)">
              <path id="path5335" d="M7.766,0S-7.76,7.471-7.876,9.105s1.984,5.02,4.669,3.736S10.451,3.269,10.335,2.1,7.766,0,7.766,0" transform="translate(7.881 0)" fill="#fefefe"/>
            </g>
          </g>
        </g>
      </g>
      <g id="g5343" transform="translate(53.291 45.241)">
        <path id="path5345" d="M.522,2.426A1.05,1.05,0,0,1,.084.421L6.169-2.367a1.051,1.051,0,0,1,1.392.518A1.05,1.05,0,0,1,7.043-.457L.959,2.33a1.046,1.046,0,0,1-.437.1" transform="translate(0.53 2.462)" fill="#fff"/>
      </g>
      <g id="g5347" transform="translate(40.377 49.517)">
        <path id="path5349" d="M.522,3.368a1.051,1.051,0,0,1-.457-2L9.783-3.314a1.052,1.052,0,0,1,1.4.49,1.051,1.051,0,0,1-.49,1.4L.977,3.264a1.056,1.056,0,0,1-.455.1" transform="translate(0.53 3.417)" fill="#fff"/>
      </g>
      <g id="g5351" transform="translate(67.182 19.946)">
        <path id="path5353" d="M40.7.226S-29.32,18.178-32.2,18.1-42.708,9.337-41.08,8.62,48.633-2.506,40.7.226" transform="translate(41.305 0.23)" fill="#5a82a3"/>
      </g>
      <g id="g5355" transform="translate(58.208 26.789)">
        <path id="path5357" d="M7.576,4.49c-.8.036-7.71-3.66-14.313-2.606l-.952-4.012S-.773-3.586,3.047-4.5s7.979,8.828,4.53,8.986" transform="translate(7.688 4.556)" fill="#5a82a3"/>
      </g>
      <g id="g5359" transform="translate(110.973 21.66)">
        <path id="path5361" d="M.521,2.2A1.05,1.05,0,0,1,.4.109L20.01-2.226a1.045,1.045,0,0,1,1.167.918A1.05,1.05,0,0,1,20.258-.14L.646,2.195A.949.949,0,0,1,.521,2.2" transform="translate(0.528 2.235)" fill="#fff"/>
      </g>
      <g id="g5363" transform="translate(77.061 28.373)">
        <path id="path5365" d="M3.476,1.738a3.5,3.5,0,0,1-3.5,3.5,3.5,3.5,0,0,1-3.5-3.5,3.5,3.5,0,0,1,3.5-3.5,3.5,3.5,0,0,1,3.5,3.5" transform="translate(3.528 1.764)" fill="#517597"/>
      </g>
      <g id="g5367" transform="translate(77.605 29.169)">
        <path id="path5369" d="M.522,1.724H.469a1.051,1.051,0,0,1-1-1.1,3.094,3.094,0,0,1,1.1-2.143,1.053,1.053,0,0,1,1.476.167A1.051,1.051,0,0,1,1.88.123a1,1,0,0,0-.309.6,1.051,1.051,0,0,1-1.049,1" transform="translate(0.53 1.749)" fill="#fff"/>
      </g>
      <g id="g5371" transform="translate(0 12.472)">
        <path id="path5373" d="M6.438,13.487C-.856,13.649-.429,8.464-.54,3.448s5.711-9.213,13-9.375,14.092,5.245,14.2,10.26S13.733,13.325,6.438,13.487M51.678.646c-.75-1.577-11.714.976-16.623-.621S20.639-14.889,9.934-13.6-3.542-6.366-5.73-.761C-8,5.047-4.936,18.633-3.1,19.033S51.339,8.226,51.339,8.226c3.1-.548,1.088-6,.338-7.58" transform="translate(6.534 13.687)" fill="#f49f44"/>
      </g>
      <g id="g5375" transform="translate(36.841 27.839)">
        <g id="g5389">
          <g id="g5387" opacity="0.15" clip-path="url(#clip-path-6)">
            <g id="g5385" transform="translate(0 0)">
              <path id="path5383" d="M8.867,0C8.4.059-2.34.238-4.908.938S-8.643,4.09-8.994,6.658s19.028-.466,20.2-1.284S10.851-.229,8.867,0" transform="translate(8.998 0.004)" fill="#fefefe"/>
            </g>
          </g>
        </g>
      </g>
      <g id="g5391" transform="translate(28.658 18.39)">
        <path id="path5393" d="M4.217,4.086a1.046,1.046,0,0,1-.706-.273,87.191,87.191,0,0,0-7.3-6.021,1.051,1.051,0,0,1-.326-1.45,1.049,1.049,0,0,1,1.449-.326,86.457,86.457,0,0,1,7.59,6.241,1.051,1.051,0,0,1-.707,1.828" transform="translate(4.279 4.147)" fill="#fff"/>
      </g>
      <g id="g5395" transform="translate(19.277 13.225)">
        <path id="path5397" d="M3.693,2.478a1.05,1.05,0,0,1-.613-.2A27.418,27.418,0,0,0-3.01-.459,1.05,1.05,0,0,1-3.7-1.775a1.049,1.049,0,0,1,1.316-.69A29.011,29.011,0,0,1,4.308.574a1.051,1.051,0,0,1-.615,1.9" transform="translate(3.748 2.514)" fill="#fff"/>
      </g>
      <g id="g4987" transform="translate(84.616 60.13)">
        <g id="g5001" transform="translate(0 0)">
          <g id="g4999" opacity="0.2" clip-path="url(#clip-path-7)">
            <g id="g4997" transform="translate(0 0)">
              <path id="path4995" d="M11.514,1.326A14.8,14.8,0,0,0-9.1,4.953,14.8,14.8,0,0,0-5.224,25.517,14.8,14.8,0,0,0,15.384,21.89,14.8,14.8,0,0,0,11.514,1.326" transform="translate(11.684 1.345)" fill="#4c466f"/>
            </g>
          </g>
        </g>
      </g>
      <g id="g5003" transform="translate(84.616 55.928)">
        <path id="path5005" d="M13.435,11.533A14.8,14.8,0,0,1-7.173,15.159,14.8,14.8,0,0,1-11.045-5.406,14.8,14.8,0,0,1,9.564-9.032a14.8,14.8,0,0,1,3.871,20.564" transform="translate(13.634 11.703)" fill="#aca8ee"/>
      </g>
      <g id="g5007" transform="translate(89.745 60.961)">
        <path id="path5009" d="M8.8,7.551A9.689,9.689,0,0,1-4.7,9.926,9.689,9.689,0,0,1-7.232-3.539,9.689,9.689,0,0,1,6.262-5.914,9.689,9.689,0,0,1,8.8,7.551" transform="translate(8.927 7.663)" fill="#bebeff"/>
      </g>
      <g id="g5027" transform="translate(87.78 57.172)">
        <path id="path5029" d="M.521,3.954A1.051,1.051,0,0,1-.342,2.305c.221-.319,5.474-7.787,12.059-6.059a1.051,1.051,0,0,1,.75,1.283,1.05,1.05,0,0,1-1.282.749C6.014-3.076,1.432,3.436,1.386,3.5a1.05,1.05,0,0,1-.865.452" transform="translate(0.529 4.013)" fill="#fff"/>
      </g>
      <g id="g5011" transform="translate(98.43 67.722)">
        <path id="path5013" d="M.727.643A.836.836,0,0,1-.419.915.835.835,0,0,1-.569-.253.835.835,0,0,1,.577-.525.835.835,0,0,1,.727.643" transform="translate(0.738 0.653)" fill="#fefefe"/>
      </g>
      <g id="g5015" transform="translate(101.093 69.565)">
        <path id="path5017" d="M.727.643A.836.836,0,0,1-.419.915.835.835,0,0,1-.569-.253.835.835,0,0,1,.577-.525.835.835,0,0,1,.727.643" transform="translate(0.738 0.653)" fill="#fefefe"/>
      </g>
      <g id="g5019" transform="translate(96.612 70.297)">
        <path id="path5021" d="M.727.643A.835.835,0,0,1-.419.915.835.835,0,0,1-.569-.253.835.835,0,0,1,.577-.525.835.835,0,0,1,.727.643" transform="translate(0.738 0.653)" fill="#fefefe"/>
      </g>
      <g id="g5023" transform="translate(99.276 72.141)">
        <path id="path5025" d="M.727.643A.836.836,0,0,1-.419.915.836.836,0,0,1-.569-.253.836.836,0,0,1,.577-.525.835.835,0,0,1,.727.643" transform="translate(0.738 0.653)" fill="#fefefe"/>
      </g>
    </g>
    <g id="Gun" transform="translate(325.354 350.588)">
      <g id="g5131" transform="translate(0 71.629)">
        <g id="g5145" transform="translate(0 0)">
          <g id="g5143" opacity="0.2" clip-path="url(#clip-path-8)">
            <g id="g5141" transform="translate(0 0)">
              <path id="path5139" d="M32.559,1.16,21.112,5.692,21.1,5.666-4,15.633-20.52,22.174l-.71,3.062-2.323,1.271-.474-1.442-9.013,5.559,2.215,6.617,10.406-1.191-.364-1.111,2.84.078,1.93,1.8L-3.171,33.4C1.12,32.26,27.992,25.132,28,25.1v0l11.743-3.127,4.39-.455L36.282-1.178Z" transform="translate(33.04 1.178)" fill="#4c466f"/>
            </g>
          </g>
        </g>
      </g>
      <g id="g5147" transform="translate(10.531 69.765)">
        <path id="path5149" d="M3.224,17.7,58.977,2.851,51.8-17.96-1.284,3.053l-1.988,8.581Z" transform="translate(3.272 17.96)" fill="#fe7ac2"/>
      </g>
      <g id="g5163" transform="translate(24.375 74.27)">
        <path id="path5165" d="M0,5.866,4.918,21.932s31.739-8.417,31.744-8.449c.036-.229-6.894-19.436-6.894-19.436Z" transform="translate(0 5.953)" fill="#517597"/>
      </g>
      <g id="g5167" transform="translate(15.62 74.358)">
        <g id="g5181" transform="translate(0 0)">
          <g id="g5179" opacity="0.1" clip-path="url(#clip-path-9)">
            <g id="g5177" transform="translate(0 0)">
              <path id="path5175" d="M23.118,0-23.46,17.861l3.152,10.681L27.846,14.534Z" transform="translate(23.46)" fill="#fefefe"/>
            </g>
          </g>
        </g>
      </g>
      <g id="g5155" transform="translate(9.272 93.753)">
        <path id="path5157" d="M2.912,4.9-.347,4.81l-2.608-8.3,2.7-1.477Z" transform="translate(2.955 4.971)" fill="#de4e8e"/>
      </g>
      <g id="g5159" transform="translate(0 93.669)">
        <path id="path5161" d="M6.264,5.453-4.142,6.643-6.357.027l9.013-5.56Z" transform="translate(6.357 5.533)" fill="#fe7ac2"/>
      </g>
      <g id="g5191" transform="translate(13.181 89.697)">
        <path id="path5193" d="M.522,1.714a1.051,1.051,0,0,1-.4-2.024L3.435-1.66a1.047,1.047,0,0,1,1.37.575A1.051,1.051,0,0,1,4.229.285L.918,1.637a1.041,1.041,0,0,1-.4.078" transform="translate(0.529 1.74)" fill="#fff"/>
      </g>
      <g id="g5187" transform="translate(19.522 82.664)">
        <path id="path5189" d="M.522,3.933A1.051,1.051,0,0,1,.15,1.9L15.561-3.924a1.052,1.052,0,0,1,1.354.611A1.051,1.051,0,0,1,16.3-1.958L.893,3.865a1.047,1.047,0,0,1-.371.068" transform="translate(0.529 3.991)" fill="#fff"/>
      </g>
      <g id="g4899" transform="translate(122.552 97.17)">
        <g id="g4913" transform="translate(0 0)">
          <g id="g4911" opacity="0.2" clip-path="url(#clip-path-10)">
            <g id="g4909" transform="translate(0 0)">
              <path id="path4907" d="M6.487.747A8.338,8.338,0,0,0-5.125,2.791,8.338,8.338,0,0,0-2.944,14.378,8.337,8.337,0,0,0,8.669,12.334,8.338,8.338,0,0,0,6.487.747" transform="translate(6.583 0.758)" fill="#4c466f"/>
            </g>
          </g>
        </g>
      </g>
      <g id="g4915" transform="translate(122.552 92.967)">
        <path id="path4917" d="M7.57,6.5A8.338,8.338,0,0,1-4.042,8.542,8.337,8.337,0,0,1-6.223-3.045,8.337,8.337,0,0,1,5.389-5.089,8.338,8.338,0,0,1,7.57,6.5" transform="translate(7.682 6.594)" fill="#fe7ac2"/>
      </g>
      <g id="g4919" transform="translate(125.442 95.803)">
        <path id="path4921" d="M4.956,4.254a5.458,5.458,0,0,1-7.6,1.338A5.459,5.459,0,0,1-4.075-1.994a5.46,5.46,0,0,1,7.6-1.338A5.458,5.458,0,0,1,4.956,4.254" transform="translate(5.03 4.317)" fill="#ffa0e5"/>
      </g>
      <g id="g4923" transform="translate(130.335 99.613)">
        <path id="path4925" d="M.41.362A.472.472,0,0,1-.236.516.471.471,0,0,1-.321-.143.47.47,0,0,1,.325-.3.47.47,0,0,1,.41.362" transform="translate(0.416 0.368)" fill="#fefefe"/>
      </g>
      <g id="g4927" transform="translate(131.836 100.651)">
        <path id="path4929" d="M.41.363A.471.471,0,0,1-.236.516.471.471,0,0,1-.321-.143.471.471,0,0,1,.326-.3.471.471,0,0,1,.41.363" transform="translate(0.416 0.368)" fill="#fefefe"/>
      </g>
      <g id="g4931" transform="translate(129.311 101.063)">
        <path id="path4933" d="M.41.363A.472.472,0,0,1-.236.516.471.471,0,0,1-.321-.143.47.47,0,0,1,.325-.3.471.471,0,0,1,.41.363" transform="translate(0.416 0.368)" fill="#fefefe"/>
      </g>
      <g id="g4935" transform="translate(130.812 102.102)">
        <path id="path4937" d="M.41.363A.471.471,0,0,1-.236.516.472.472,0,0,1-.321-.143.471.471,0,0,1,.326-.3.47.47,0,0,1,.41.363" transform="translate(0.416 0.368)" fill="#fefefe"/>
      </g>
      <g id="g4939" transform="translate(124.335 93.669)">
        <path id="path4941" d="M.293,2.227A.591.591,0,0,1-.193,1.3C-.069,1.119,2.89-3.087,6.6-2.115a.592.592,0,0,1,.422.723A.593.593,0,0,1,6.3-.969C3.4-1.731.806,1.936.78,1.973a.591.591,0,0,1-.487.254" transform="translate(0.298 2.26)" fill="#fff"/>
      </g>
      <g id="g4943" transform="translate(145.02 95.572)">
        <g id="g4957" transform="translate(0 0)">
          <g id="g4955" opacity="0.2" clip-path="url(#clip-path-11)">
            <g id="g4953" transform="translate(0 0)">
              <path id="path4951" d="M6.487.747A8.337,8.337,0,0,0-5.125,2.79,8.338,8.338,0,0,0-2.944,14.378,8.336,8.336,0,0,0,8.668,12.334,8.337,8.337,0,0,0,6.487.747" transform="translate(6.583 0.758)" fill="#4c466f"/>
            </g>
          </g>
        </g>
      </g>
      <g id="g4959" transform="translate(145.02 91.369)">
        <path id="path4961" d="M7.57,6.5A8.338,8.338,0,0,1-4.042,8.542,8.338,8.338,0,0,1-6.223-3.046,8.337,8.337,0,0,1,5.389-5.089,8.337,8.337,0,0,1,7.57,6.5" transform="translate(7.682 6.594)" fill="#fe7ac2"/>
      </g>
      <g id="g4963" transform="translate(147.91 94.205)">
        <path id="path4965" d="M4.956,4.255a5.459,5.459,0,0,1-7.6,1.338A5.459,5.459,0,0,1-4.075-1.994a5.459,5.459,0,0,1,7.6-1.338A5.459,5.459,0,0,1,4.956,4.255" transform="translate(5.03 4.318)" fill="#ffa0e5"/>
      </g>
      <g id="g4967" transform="translate(152.803 98.015)">
        <path id="path4969" d="M.41.363A.471.471,0,0,1-.236.516.471.471,0,0,1-.32-.143.47.47,0,0,1,.326-.3.469.469,0,0,1,.41.363" transform="translate(0.416 0.368)" fill="#fefefe"/>
      </g>
      <g id="g4971" transform="translate(154.304 99.053)">
        <path id="path4973" d="M.41.362A.471.471,0,0,1-.236.516.471.471,0,0,1-.321-.143.47.47,0,0,1,.325-.3.469.469,0,0,1,.41.362" transform="translate(0.416 0.368)" fill="#fefefe"/>
      </g>
      <g id="g4975" transform="translate(151.779 99.466)">
        <path id="path4977" d="M.41.362A.471.471,0,0,1-.236.516.47.47,0,0,1-.32-.143.47.47,0,0,1,.326-.3.469.469,0,0,1,.41.362" transform="translate(0.416 0.368)" fill="#fefefe"/>
      </g>
      <g id="g4979" transform="translate(153.28 100.504)">
        <path id="path4981" d="M.41.363A.472.472,0,0,1-.236.516.472.472,0,0,1-.321-.143.471.471,0,0,1,.325-.3.471.471,0,0,1,.41.363" transform="translate(0.416 0.368)" fill="#fefefe"/>
      </g>
      <g id="g4983" transform="translate(146.802 92.071)">
        <path id="path4985" d="M.294,2.227A.592.592,0,0,1-.193,1.3C-.069,1.119,2.89-3.087,6.6-2.115a.592.592,0,0,1,.422.723A.593.593,0,0,1,6.3-.969C3.4-1.731.806,1.936.78,1.973a.591.591,0,0,1-.487.254" transform="translate(0.298 2.26)" fill="#fff"/>
      </g>
      <g id="g5183" transform="translate(1.619 95.682)">
        <path id="path5185" d="M.522,2.6A1.051,1.051,0,0,1,0,.63L5.533-2.5a1.049,1.049,0,0,1,1.432.4,1.051,1.051,0,0,1-.4,1.432L1.038,2.46A1.045,1.045,0,0,1,.522,2.6" transform="translate(0.53 2.634)" fill="#fff"/>
      </g>
      <g id="g5423" transform="translate(163.058 52.876)">
        <path id="path5425" d="M2.129,2.549a1.046,1.046,0,0,1-.718-.284L-1.828-.769a1.05,1.05,0,0,1-.049-1.485A1.05,1.05,0,0,1-.392-2.3L2.847.732a1.051,1.051,0,0,1-.718,1.818" transform="translate(2.161 2.587)" fill="#fff"/>
      </g>
      <g id="g5151" transform="translate(65.599 67.427)">
        <path id="path5153" d="M5.743,11.263l-4.39.455L-5.828-9.092-2.1-11.43Z" transform="translate(5.828 11.43)" fill="#de4e8e"/>
      </g>
      <g id="g5399" transform="translate(58.148 4.203)">
        <g id="g5413">
          <g id="g5411" opacity="0.2" clip-path="url(#clip-path-12)">
            <g id="g5409" transform="translate(0 0)">
              <path id="path5407" d="M43.766,19.479c.114-3.214.086-5.545.086-5.545S38,9.481,25.209,2.946C22.4,1.431,19.4-.11,16.54-1.438c0,0-.007.053-.018.151a378.96,378.96,0,0,0-47.88-18.13c-1.621-.5-1.852.206-1.852.206s-.31.59-.785,1.556c-2.975-.948-6.961-2.16-7.767-2.11-1.318.08-2.522,3.274-2.649,3.882-.086.411,3.4,4.981,6.365,7.75a21.346,21.346,0,0,0-1.135,4.775C-39.267-2.266-36.673.3-33.032,3.38a5.163,5.163,0,0,0-.062.735,14.43,14.43,0,0,0,3.3,1.924c4.284,3.439,9.215,7.146,12.969,10.04a14.423,14.423,0,0,0-.158,1.455c-.119,2.367,2.544,4.443,3.572,4.553.32.034.748-.952,1.163-2.356.351.3.646.57.864.788,3.705,3.705,6.93,14.754,7.205,17.087s-.824,25.939-1.441,28.2-12.969,17.705-12.969,21.2,15.851,15.44,17.292,15.44S10.433,85.78,13.52,76.311,18.668,43.99,18.668,43.99s16.675-3.431,21.066-5.9c1.963-1.1,2.992-6.044,3.532-11.171,6.021,4.31,20.458,14.6,21,14.6.686,0,2.2-4.392,2.2-4.392-2.737-4.231-19.578-15.57-22.7-17.648" transform="translate(44.413 19.767)" fill="#4c466f"/>
            </g>
          </g>
        </g>
      </g>
      <g id="g5427" transform="translate(58.148)">
        <path id="path5429" d="M6.842,1.593S-2.976-1.695-4.293-1.615-6.814,1.659-6.942,2.267.615,12.576,2.867,12.1s4.7-9.475,3.975-10.51" transform="translate(6.943 1.616)" fill="#4c466f"/>
      </g>
      <g id="g5431" transform="translate(60.184 0.345)">
        <path id="path5433" d="M3.158,1.912a1.063,1.063,0,0,1-.329-.053L-2.483.109a1.051,1.051,0,0,1-.669-1.327,1.052,1.052,0,0,1,1.327-.669L3.487-.137a1.051,1.051,0,0,1-.329,2.049" transform="translate(3.205 1.94)" fill="#fff"/>
      </g>
      <g id="g5435" transform="translate(63.378 0.171)">
        <path id="path5437" d="M2.964.191s-5.559,10.6-5.97,15.852c-.261,3.316,24.086,20.175,27.792,23.881s6.931,14.754,7.205,17.087-.823,25.939-1.441,28.2-12.97,17.7-12.97,21.2,15.851,15.44,17.293,15.44S46.608,105.183,49.7,95.713s5.147-32.321,5.147-32.321,16.675-3.431,21.067-5.9,4.117-24.155,4.117-24.155S57.656,16.317,4.817-.015C3.2-.516,2.964.191,2.964.191" transform="translate(3.008 0.194)" fill="#aca8ee"/>
      </g>
      <g id="g5447" transform="translate(93.945 45.994)">
        <path id="path5449" d="M5.265,1.255s3.087,1.03,2.47,19.969S-.91,53.133-3.793,58.691s-1.235,6.176.824,7.823S6.913,50.662,9.794,41.4,12.059,8.46,8.628,2.353,3.344-.736,5.265,1.255" transform="translate(5.343 1.274)" fill="#4c466f"/>
      </g>
      <g id="g5451" transform="translate(75.643 7.733)">
        <path id="path5453" d="M1.794,4.979S.016-2.564-.516-4-1.959-5.213-1.8-4.437C-1.8-4.437.83,5.505,1,6.235c.2.864.783.816.945.186a4.254,4.254,0,0,0-.153-1.442" transform="translate(1.821 5.053)" fill="#4c466f"/>
      </g>
      <g id="g5455" transform="translate(82.024 10.958)">
        <path id="path5457" d="M1.794,4.979S.016-2.563-.516-4-1.959-5.213-1.8-4.437C-1.8-4.437.83,5.5,1,6.235c.2.863.783.815.945.186a4.254,4.254,0,0,0-.153-1.442" transform="translate(1.821 5.053)" fill="#4c466f"/>
      </g>
      <g id="g5459" transform="translate(88.406 14.184)">
        <path id="path5461" d="M1.794,4.979S.016-2.563-.516-4-1.959-5.213-1.8-4.437C-1.8-4.437.83,5.5,1,6.235c.2.863.783.815.945.186a4.235,4.235,0,0,0-.153-1.442" transform="translate(1.821 5.053)" fill="#4c466f"/>
      </g>
      <g id="g5463" transform="translate(94.788 17.409)">
        <path id="path5465" d="M1.794,4.979S.017-2.563-.516-4-1.959-5.213-1.8-4.438C-1.8-4.438.83,5.5,1,6.235c.2.864.783.816.944.186a4.235,4.235,0,0,0-.153-1.442" transform="translate(1.821 5.052)" fill="#4c466f"/>
      </g>
      <g id="g5467" transform="translate(70.23 1.86)">
        <path id="path5469" d="M.483,0S44.264,16.058,44.949,17.567s-.137,3.98-.137,3.98S-.341,2.059-.478,1.236.483,0,.483,0" transform="translate(0.49 0)" fill="#4c466f"/>
      </g>
      <g id="g5471" transform="translate(69.466 20.433)">
        <path id="path5473" d="M0,1.712S-.046-1.651,2.527-1.737,21.407,7.344,22.121,8.378s-1.414,11.416-2.442,11.307-3.692-2.187-3.573-4.553,1.021-3.939-.514-5.287S.576,2.711,0,1.712" transform="translate(0 1.737)" fill="#4c466f"/>
      </g>
      <g id="g5507" transform="translate(64.24 5.539)">
        <g id="g5521">
          <g id="g5519" opacity="0.1" clip-path="url(#clip-path-13)">
            <g id="g5517" transform="translate(0 0)">
              <path id="path5515" d="M2.347,0S6.841,2.276,7.308,2.686,9.234,14.534,9.234,14.534s-3.852-2.451-5.428-1.926a3.819,3.819,0,0,0-2.1,2.451s-4.086-2.393-4.086-3.735S.888-.058,2.347,0" transform="translate(2.381 0)" fill="#fefefe"/>
            </g>
          </g>
        </g>
      </g>
      <g id="g5523" transform="translate(71.449 20.89)">
        <path id="path5525" d="M3.476,2.433a1.048,1.048,0,0,1-.447-.1l-5.954-2.8a1.05,1.05,0,0,1-.5-1.4,1.052,1.052,0,0,1,1.4-.5L3.924.432a1.051,1.051,0,0,1-.448,2" transform="translate(3.528 2.469)" fill="#fff"/>
      </g>
      <g id="g5531" transform="translate(70.152 0.809)">
        <path id="path5533" d="M9.378,4.361a1.031,1.031,0,0,1-.368-.067L-8.835-2.391A1.05,1.05,0,0,1-9.45-3.743,1.048,1.048,0,0,1-8.1-4.358L9.747,2.327a1.05,1.05,0,0,1-.368,2.034" transform="translate(9.517 4.426)" fill="#fff"/>
      </g>
      <g id="g5535" transform="translate(91.79 8.982)">
        <path id="path5537" d="M3.244,2.173a1.047,1.047,0,0,1-.4-.08L-2.644-.183a1.052,1.052,0,0,1-.568-1.374,1.049,1.049,0,0,1,1.374-.568L3.648.152a1.051,1.051,0,0,1-.4,2.021" transform="translate(3.292 2.205)" fill="#fff"/>
      </g>
      <g id="g4855" transform="translate(138.716 72.808)">
        <g id="g4869" transform="translate(0 0)">
          <g id="g4867" opacity="0.2" clip-path="url(#clip-path-14)">
            <g id="g4865" transform="translate(0 0)">
              <path id="path4863" d="M7.57,6.5A8.337,8.337,0,0,0,5.389-5.089,8.337,8.337,0,0,0-6.223-3.046,8.338,8.338,0,0,0-4.042,8.542,8.337,8.337,0,0,0,7.57,6.5" transform="translate(7.682 6.594)" fill="#4c466f"/>
            </g>
          </g>
        </g>
      </g>
      <g id="g4871" transform="translate(138.716 68.605)">
        <path id="path4873" d="M7.57,6.5A8.338,8.338,0,0,1-4.042,8.542,8.338,8.338,0,0,1-6.223-3.046,8.337,8.337,0,0,1,5.389-5.089,8.337,8.337,0,0,1,7.57,6.5" transform="translate(7.682 6.594)" fill="#fe7ac2"/>
      </g>
      <g id="g4875" transform="translate(141.606 71.442)">
        <path id="path4877" d="M4.956,4.255a5.459,5.459,0,0,1-7.6,1.338A5.459,5.459,0,0,1-4.075-1.994a5.459,5.459,0,0,1,7.6-1.338A5.459,5.459,0,0,1,4.956,4.255" transform="translate(5.03 4.318)" fill="#ffa0e5"/>
      </g>
      <g id="g4879" transform="translate(146.499 75.251)">
        <path id="path4881" d="M.41.363A.471.471,0,0,1-.236.516.471.471,0,0,1-.32-.143.47.47,0,0,1,.326-.3.469.469,0,0,1,.41.363" transform="translate(0.416 0.368)" fill="#fefefe"/>
      </g>
      <g id="g4883" transform="translate(148 76.29)">
        <path id="path4885" d="M.41.362A.471.471,0,0,1-.236.516.471.471,0,0,1-.321-.143.47.47,0,0,1,.325-.3.469.469,0,0,1,.41.362" transform="translate(0.416 0.368)" fill="#fefefe"/>
      </g>
      <g id="g4887" transform="translate(145.475 76.702)">
        <path id="path4889" d="M.41.362A.471.471,0,0,1-.236.516.47.47,0,0,1-.32-.143.47.47,0,0,1,.326-.3.469.469,0,0,1,.41.362" transform="translate(0.416 0.368)" fill="#fefefe"/>
      </g>
      <g id="g4891" transform="translate(146.976 77.741)">
        <path id="path4893" d="M.41.363A.472.472,0,0,1-.236.516.472.472,0,0,1-.321-.143.471.471,0,0,1,.325-.3.471.471,0,0,1,.41.363" transform="translate(0.416 0.368)" fill="#fefefe"/>
      </g>
      <g id="g4895" transform="translate(140.499 69.307)">
        <path id="path4897" d="M.294,2.227A.592.592,0,0,1-.193,1.3C-.069,1.119,2.89-3.087,6.6-2.115a.592.592,0,0,1,.422.723A.593.593,0,0,1,6.3-.969C3.4-1.731.806,1.936.78,1.973a.591.591,0,0,1-.487.254" transform="translate(0.298 2.26)" fill="#fff"/>
      </g>
      <g id="g5415" transform="translate(143.22 38.916)">
        <path id="path5417" d="M1.295,0S21.469,13.313,24.488,17.979c0,0-1.509,4.392-2.2,4.392S-1.314,5.9-1.314,5.9Z" transform="translate(1.314)" fill="#e4ceea"/>
      </g>
      <g id="g5419" transform="translate(148.07 41.909)">
        <path id="path5421" d="M6.831,5.748a1.045,1.045,0,0,1-.753-.318C3.3,2.575-6.364-3.842-6.462-3.907a1.05,1.05,0,0,1-.294-1.456A1.051,1.051,0,0,1-5.3-5.658C-4.9-5.39,4.649.948,7.584,3.964a1.051,1.051,0,0,1-.753,1.783" transform="translate(6.932 5.833)" fill="#fff"/>
      </g>
      <g id="g5439" transform="translate(118.383 18.329)">
        <path id="path5441" d="M.356,0S-1.428,13.725.631,15.783s12.626,6.038,14.684,6.038,6.176-10.293,6.176-10.293S10.1,4.53.356,0" transform="translate(0.361)" fill="#8888dc"/>
      </g>
      <g id="g5443" transform="translate(114.796 45.509)">
        <path id="path5445" d="M2.784,7.115c-.838.132-6.176-12.97-5.559-14.2S19.459-.5,19.459.94,6.695,6.5,2.784,7.115" transform="translate(2.825 7.221)" fill="#4c466f"/>
      </g>
      <g id="g5475" transform="translate(101.071 20.045)">
        <g id="g5489">
          <g id="g5487" opacity="0.1" clip-path="url(#clip-path-15)">
            <g id="g5485" transform="translate(-0.001 0.001)">
              <path id="path5483" d="M0,.129S1.635,16.705,1.985,18.456,35.838,30.6,38.173,30.831s4.9-10.389,4.787-12.724-3.152-3.969-3.152-3.969-1.518,8.171-2.919,8.871S17.16,17.756,15.526,16.355,12.841,4.8,12.257,4.1.584-1.271,0,.129" transform="translate(0 0.131)" fill="#fefefe"/>
            </g>
          </g>
        </g>
      </g>
      <g id="g5491" transform="translate(97.685 46.018)">
        <g id="g5505">
          <g id="g5503" opacity="0.1" clip-path="url(#clip-path-16)">
            <g id="g5501" transform="translate(0)">
              <path id="path5499" d="M5.533,0s6.129,25.3,4.261,31.606S6.759,49.584,2.323,57.055-5.615,70.363-5.615,70.363l2.8,2.1S7.226,55.888,10.027,48.416,14.464,24.6,14.464,24.6L10.027,2.422Z" transform="translate(5.615)" fill="#fefefe"/>
            </g>
          </g>
        </g>
      </g>
      <g id="g5527" transform="translate(140.177 31.045)">
        <path id="path5529" d="M2.3,2.3A1.043,1.043,0,0,1,1.7,2.111L-1.893-.428a1.051,1.051,0,0,1-.251-1.465A1.05,1.05,0,0,1-.68-2.144L2.91.395A1.051,1.051,0,0,1,2.3,2.3" transform="translate(2.337 2.338)" fill="#fff"/>
      </g>
      <g id="g5539" transform="translate(118.292 27.01)">
        <path id="path5541" d="M7.281,3.27-7.233-3.318s-.412,4.941.1,6.485S5.6,9.534,5.6,9.534Z" transform="translate(7.389 3.318)" fill="#e4ceea"/>
      </g>
      <g id="g5543" transform="translate(119.048 28.652)">
        <path id="path5545" d="M4.78,3.1A1.049,1.049,0,0,1,4.324,3l-8.58-4.144a1.051,1.051,0,0,1-.49-1.4,1.05,1.05,0,0,1,1.4-.49L5.237,1.1a1.051,1.051,0,0,1-.457,2" transform="translate(4.851 3.146)" fill="#fff"/>
      </g>
      <g id="g5547" transform="translate(129.842 33.015)">
        <path id="path5549" d="M4.054.935S.378-.949-.857-.949s-3.85,5.636-3.136,6.322a5.113,5.113,0,0,0,4.1.814C1.888,5.913,4.054.935,4.054.935" transform="translate(4.114 0.949)" fill="#4c466f"/>
      </g>
    </g>
    <g id="Iedc" transform="translate(102.249 61.034)">
      <text id="text8603" transform="translate(7.463 174.964) rotate(-2.641)" fill="#dad9e1" font-size="124" font-family="Pacifico-Regular, Pacifico" opacity="0.76"><tspan x="0" y="0">iedc</tspan></text>
      <text id="text8603-2" data-name="text8603" transform="translate(7.463 170.899) rotate(-2.641)" fill="#7aff86" font-size="124" font-family="Pacifico-Regular, Pacifico"><tspan x="0" y="0">iedc</tspan></text>
    </g>
    <g id="Crafts" transform="translate(189.884 159.042)">
      <text id="text8609" transform="translate(0 158.842)" fill="#dad9e1" font-size="118" font-family="Pacifico-Regular, Pacifico" opacity="0.7"><tspan x="0" y="0">crafts</tspan></text>
      <text id="text8609-2" data-name="text8609" transform="translate(0 154)" fill="#5bc7ff" font-size="118" font-family="Pacifico-Regular, Pacifico"><tspan x="0" y="0">crafts</tspan></text>
    </g>
    <g id="Brush" transform="translate(51.02 10.603)">
      <g id="g5195" transform="translate(0 4.202)">
        <g id="g5209">
          <g id="g5207" opacity="0.2" clip-path="url(#clip-path-17)">
            <g id="g5205" transform="translate(0 0)">
              <path id="path5203" d="M31.215,5.3A3.467,3.467,0,0,1,26.666,7.11,3.466,3.466,0,0,1,25.21,2.436,3.465,3.465,0,0,1,29.759.631,3.464,3.464,0,0,1,31.215,5.3M30.988-5.258C27.02-4.05,20.2-1.3,17.975,3.754c-3.2,7.286-10.868,30.231-12.581,33.81a11.461,11.461,0,0,1-4.53,4.975L-2.245,40.8l-7.173,4.073-7.6,13.512S-33.79,76.974-31.453,79.75c.991,1.176,5.3,4.087,10.168,6.864l0,0,.879.5,0-.007c6.4,3.58,13.456,6.748,15.144,5.416C-2.2,90.11,4.286,70.366,4.286,70.366l7.6-13.512-.13-8.235L9.483,47.351a11.524,11.524,0,0,1,1.9-6.383c2.168-3.323,17.788-21.8,22.351-28.316C36.74,8.358,35.489.781,34.507-3.263a2.776,2.776,0,0,0-3.518-2" transform="translate(31.676 5.382)" fill="#4c466f"/>
            </g>
          </g>
        </g>
      </g>
      <g id="g5211" transform="translate(0 63.77)">
        <path id="path5213" d="M17.849,5.945S11.367,25.688,8.3,28.107s-23.854-10-26.191-12.778S-3.452-6.033-3.452-6.033Z" transform="translate(18.113 6.033)" fill="#ffa059"/>
      </g>
      <g id="g4811" transform="translate(40.708 96.369)">
        <g id="g4825">
          <g id="g4823" opacity="0.2" clip-path="url(#clip-path-18)">
            <g id="g4821" transform="translate(0 0)">
              <path id="path4819" d="M1.285,3.126A14.8,14.8,0,0,0,5.156,23.69a14.8,14.8,0,0,0,20.608-3.626A14.8,14.8,0,0,0,21.894-.5,14.8,14.8,0,0,0,1.285,3.126" transform="translate(1.304 3.172)" fill="#4c466f"/>
            </g>
          </g>
        </g>
      </g>
      <g id="g4827" transform="translate(40.708 92.167)">
        <path id="path4829" d="M13.435,11.533A14.8,14.8,0,0,1-7.174,15.159,14.8,14.8,0,0,1-11.044-5.4,14.8,14.8,0,0,1,9.565-9.032a14.8,14.8,0,0,1,3.87,20.564" transform="translate(13.634 11.703)" fill="#fe7ac2"/>
      </g>
      <g id="g4831" transform="translate(45.837 97.201)">
        <path id="path4833" d="M8.8,7.551A9.689,9.689,0,0,1-4.7,9.926,9.689,9.689,0,0,1-7.232-3.539,9.689,9.689,0,0,1,6.263-5.914,9.689,9.689,0,0,1,8.8,7.551" transform="translate(8.927 7.663)" fill="#ffa0e5"/>
      </g>
      <g id="g4835" transform="translate(54.522 103.961)">
        <path id="path4837" d="M.727.643A.836.836,0,0,1-.419.915.836.836,0,0,1-.569-.253.836.836,0,0,1,.577-.525.835.835,0,0,1,.727.643" transform="translate(0.738 0.653)" fill="#fefefe"/>
      </g>
      <g id="g4839" transform="translate(57.186 105.805)">
        <path id="path4841" d="M.727.643A.837.837,0,0,1-.419.915.836.836,0,0,1-.569-.253.836.836,0,0,1,.577-.525.835.835,0,0,1,.727.643" transform="translate(0.738 0.653)" fill="#fefefe"/>
      </g>
      <g id="g4843" transform="translate(52.704 106.537)">
        <path id="path4845" d="M.727.643A.836.836,0,0,1-.419.916.837.837,0,0,1-.569-.253.836.836,0,0,1,.577-.525.835.835,0,0,1,.727.643" transform="translate(0.738 0.653)" fill="#fefefe"/>
      </g>
      <g id="g4847" transform="translate(55.369 108.38)">
        <path id="path4849" d="M.727.643A.837.837,0,0,1-.419.915.836.836,0,0,1-.569-.253.836.836,0,0,1,.577-.525.835.835,0,0,1,.727.643" transform="translate(0.738 0.653)" fill="#fefefe"/>
      </g>
      <g id="g4851" transform="translate(43.872 93.412)">
        <path id="path4853" d="M.521,3.953A1.051,1.051,0,0,1-.342,2.305c.22-.319,5.47-7.784,12.059-6.058a1.052,1.052,0,0,1,.75,1.283,1.051,1.051,0,0,1-1.283.749C6.028-3.072,1.431,3.436,1.385,3.5a1.048,1.048,0,0,1-.864.452" transform="translate(0.529 4.012)" fill="#fff"/>
      </g>
      <g id="g5215" transform="translate(7.241 66.354)">
        <path id="path5217" d="M5.964,0s-7.2,10.634-9.477,13.7a23.925,23.925,0,0,0-2.539,3.765L6.438.26Z" transform="translate(6.052)" fill="#e57622"/>
      </g>
      <g id="g5219" transform="translate(22.562 72.581)">
        <path id="path5221" d="M3.9,0l-7.85,19.2L4.787.525Z" transform="translate(3.954)" fill="#e57622"/>
      </g>
      <g id="g5223" transform="translate(10.389 74.069)">
        <path id="path5225" d="M0,8.9,11.035-9.031.879,9.4Z" transform="translate(0 9.031)" fill="#e57622"/>
      </g>
      <g id="g5227" transform="translate(32.451)">
        <path id="path5229" d="M15.108,5.3A3.467,3.467,0,0,1,10.559,7.11,3.466,3.466,0,0,1,9.1,2.436,3.465,3.465,0,0,1,13.652.631,3.464,3.464,0,0,1,15.108,5.3M18.4-3.263a2.776,2.776,0,0,0-3.518-2C10.913-4.05,4.089-1.3,1.868,3.754-1.332,11.04-9,33.985-10.713,37.564a11.349,11.349,0,0,1-4.619,5.023l1.445,7.5-.1.181.128-.048.018.092.071-.125,7.156-2.662a11.349,11.349,0,0,1,1.893-6.556c2.167-3.323,17.787-21.8,22.35-28.316C20.633,8.358,19.382.781,18.4-3.263" transform="translate(15.331 5.382)" fill="#fe7ac2"/>
      </g>
      <g id="g5231" transform="translate(43.022 11.148)">
        <path id="path5233" d="M.032,13.842,11.114-14.046s-.525,3.91,2.042,5.195,5.6-.234,5.6-.234L1.346,14.583a.76.76,0,0,1-1.314-.741" transform="translate(0.032 14.046)" fill="#ff89df"/>
      </g>
      <g id="g5235" transform="translate(52.592 2.156)">
        <path id="path5237" d="M.522,2.723A1.05,1.05,0,0,1-.022.773l5.6-3.385a1.05,1.05,0,0,1,1.442.356A1.051,1.051,0,0,1,6.667-.814l-5.6,3.386a1.046,1.046,0,0,1-.542.151" transform="translate(0.53 2.764)" fill="#fff"/>
      </g>
      <g id="g5239" transform="translate(45.938 8.811)">
        <path id="path5241" d="M.522,7.185a1.051,1.051,0,0,1-.992-1.4L3.849-6.587a1.052,1.052,0,0,1,1.338-.645,1.05,1.05,0,0,1,.646,1.338L1.513,6.48a1.052,1.052,0,0,1-.992.7" transform="translate(0.529 7.291)" fill="#fff"/>
      </g>
      <g id="g5243" transform="translate(14.661 50.257)">
        <path id="path5245" d="M3.771,0l21.3,11.977-7.6,13.513-21.3-11.978Z" transform="translate(3.827)" fill="#cdacd4"/>
      </g>
      <g id="g5247" transform="translate(22.258 46.184)">
        <path id="path5249" d="M10.573,7.966l-.13-8.235-14-7.815-7.172,4.073Z" transform="translate(10.729 8.084)" fill="#cdacd4"/>
      </g>
      <g id="g5251" transform="translate(19.323 53.945)">
        <path id="path5253" d="M2.451,0-2.487,8.771l14.816,8.551,5.234-8.845Z" transform="translate(2.487)" fill="#dab9e2"/>
      </g>
      <g id="g5255" transform="translate(16.695 53.958)">
        <path id="path5257" d="M.521,4.563A1.051,1.051,0,0,1-.415,3.037l3.59-7.092a1.051,1.051,0,0,1,1.412-.463,1.05,1.05,0,0,1,.462,1.412L1.459,3.986a1.05,1.05,0,0,1-.938.576" transform="translate(0.529 4.63)" fill="#fff"/>
      </g>
      <g id="g5259" transform="translate(23.991 46.75)">
        <path id="path5261" d="M.522,2.375A1.051,1.051,0,0,1-.045.44l4.2-2.685a1.051,1.051,0,0,1,1.451.319A1.051,1.051,0,0,1,5.29-.475L1.087,2.21a1.047,1.047,0,0,1-.565.165" transform="translate(0.53 2.411)" fill="#fff"/>
      </g>
    </g>
    <g id="Paste" transform="matrix(0.966, 0.259, -0.259, 0.966, 19.949, 180.303)">
      <g id="g4687" transform="translate(0 4.202)">
        <g id="g4701" transform="translate(0 0)">
          <g id="g4699" opacity="0.2" clip-path="url(#clip-path-19)">
            <g id="g4697" transform="translate(0 0)">
              <path id="path4695" d="M15.432,48.1l10.032-6.569v0l2.256-1.48L63.192,16.834l.079-3.143,2.019-1.713.754,1.318,7.709-7.261L70.253,0,60.3,3.262l.581,1.015-2.8.5L55.829,3.4,44.236,9.184l-.006-.011S38.664,11.956,32.4,15.091L4.207,29.165,0,30.495,12.255,51.144Z" transform="translate(0 0)" fill="#4c466f"/>
            </g>
          </g>
        </g>
      </g>
      <g id="g4703" transform="translate(4.207 3.397)">
        <path id="path4705" d="M51.621,0,0,25.77,11.224,44.708,58.986,13.438l.22-8.8Z" transform="translate(0 0)" fill="#fe7ac2"/>
      </g>
      <g id="g4707" transform="translate(0 29.166)">
        <path id="path4709" d="M0,1.329,4.207,0,15.432,18.939l-3.176,3.039Z" transform="translate(0 0)" fill="#de4e8e"/>
      </g>
      <g id="g4711" transform="translate(58.041 4.212)">
        <path id="path4713" d="M0,.569,3.209,0,7.436,7.608,5.091,9.6Z" transform="translate(0 0)" fill="#de4e8e"/>
      </g>
      <g id="g4715" transform="translate(60.299 0)">
        <path id="path4717" d="M0,3.262,9.954,0l3.5,6.035L5.746,13.3Z" transform="translate(0 0)" fill="#fe7ac2"/>
      </g>
      <g id="g4719" transform="translate(15.134 9.174)">
        <path id="path4721" d="M37.312,14.665,29.1,0S-.029,14.562,0,14.592c.831.831,10.331,17.773,10.331,17.773Z" transform="translate(0 0)" fill="#4c466f"/>
      </g>
      <g id="g4723" transform="translate(10.04 6.157)">
        <g id="g4737" transform="translate(0 0)">
          <g id="g4735" opacity="0.1" clip-path="url(#clip-path-20)">
            <g id="g4733" transform="translate(-0.001 0.001)">
              <path id="path4731" d="M7.5,36.541,49.644,9.851,44.449,0,0,23.224Z" transform="translate(0 0)" fill="#fefefe"/>
            </g>
          </g>
        </g>
      </g>
      <g id="g4739" transform="translate(62.119 0.697)">
        <path id="path4741" d="M1.051,4.155A1.051,1.051,0,0,1,.712,2.11L6.724.057A1.05,1.05,0,1,1,7.4,2.045L1.39,4.1a1.043,1.043,0,0,1-.339.057" transform="translate(0 0)" fill="#fff"/>
      </g>
      <g id="g4743" transform="translate(33.928 7.215)">
        <path id="path4745" d="M1.052,9.748A1.051,1.051,0,0,1,.563,7.767L15.156.12a1.051,1.051,0,0,1,.975,1.862L1.539,9.628a1.043,1.043,0,0,1-.487.12" transform="translate(0 0)" fill="#fff"/>
      </g>
      <g id="g4747" transform="translate(51.438 4.18)">
        <path id="path4749" d="M1.052,3.677A1.051,1.051,0,0,1,.588,1.683L3.8.107a1.051,1.051,0,1,1,.927,1.886L1.514,3.57a1.051,1.051,0,0,1-.462.108" transform="translate(0 0)" fill="#fff"/>
      </g>
    </g>
    <g id="Tag" transform="translate(284.579 106.18) rotate(-60)">
      <g id="g5263" transform="translate(0 4.203)">
        <g id="g5277" transform="translate(0 0)">
          <g id="g5275" transform="translate(0 0)" opacity="0.2" clip-path="url(#clip-path-21)">
            <g id="g5273" transform="translate(-0.001 0)">
              <path id="path5271" d="M33.163,34.3a5.079,5.079,0,0,1-10.143,0A4.826,4.826,0,0,1,26.3,29.8a25.929,25.929,0,0,0,.046,4.686A1.751,1.751,0,0,0,28.09,36.05a1.555,1.555,0,0,0,.189-.011,1.751,1.751,0,0,0,1.554-1.928,24.892,24.892,0,0,1,0-4.327A4.83,4.83,0,0,1,33.163,34.3M63.737.041a1.753,1.753,0,0,0-2.086,1.334c-2.034,9.246-4.934,9.353-11.94,9.613a57.015,57.015,0,0,0-9.574.953,15.677,15.677,0,0,0-10.994,7.943l-9.636-5.353L0,49.905,3.122,72.014l25.75-2.081L49.94,31.438,32.158,21.559a12.3,12.3,0,0,1,8.667-6.184,54.046,54.046,0,0,1,9.016-.887c7.047-.261,12.614-.466,15.231-12.36A1.751,1.751,0,0,0,63.737.041" transform="translate(0 0)" fill="#4c466f"/>
            </g>
          </g>
        </g>
      </g>
      <g id="g5279" transform="translate(0 14.531)">
        <path id="path5281" d="M28.091,24.58a4.947,4.947,0,0,1-5.072-4.812,5.079,5.079,0,0,1,10.143,0,4.947,4.947,0,0,1-5.072,4.812M19.507,0,0,35.374,3.122,57.483,28.871,55.4,49.939,16.907Z" transform="translate(0 0)" fill="#aca8ee"/>
      </g>
      <g id="g5283" transform="translate(4.409 28.192)">
        <path id="path5285" d="M12.783,0,0,21.888,1.926,40.8l19.962-2.451L33.8,14.534a23,23,0,0,1-13.833-1.051C13.133,10.506,12.783,0,12.783,0" transform="translate(0 0)" fill="#b3b3fc"/>
      </g>
      <g id="g5287" transform="translate(9.544 16.282)">
        <path id="path5289" d="M1.05,19.962a1.051,1.051,0,0,1-.924-1.549L9.757.552a1.05,1.05,0,1,1,1.849,1L1.975,19.41a1.05,1.05,0,0,1-.925.553" transform="translate(0 0)" fill="#fff"/>
      </g>
      <g id="g5291" transform="translate(26.219 0)">
        <path id="path5293" d="M1.87,36.05A1.75,1.75,0,0,1,.131,34.487c-.723-6.7,1.229-20.034,13.786-22.546a57.015,57.015,0,0,1,9.574-.953c7.006-.259,9.906-.366,11.94-9.613a1.751,1.751,0,1,1,3.42.752c-2.617,11.894-8.184,12.1-15.231,12.36a54.046,54.046,0,0,0-9.016.887C2.012,17.894,3.542,33.45,3.612,34.112A1.75,1.75,0,0,1,2.059,36.04a1.575,1.575,0,0,1-.19.011" transform="translate(0 0)" fill="#517597"/>
      </g>
    </g>
    <g id="Colors" transform="translate(71.203 264.963)">
      <g id="g4595" transform="translate(0 4.203)">
        <g id="g4609">
          <g id="g4607" opacity="0.2" clip-path="url(#clip-path-22)">
            <g id="g4605" transform="translate(0 0)">
              <path id="path4603" d="M36.9,22.091a6.49,6.49,0,1,1-6.489-6.634A6.562,6.562,0,0,1,36.9,22.091M13.572,64.61c-3.15-11.252-5.851-21.6,1.8-22.053,0,0,25.225-2.631,31.008-25.38C52.826-8.174,21.674-27.2-4.88-21.354s-46.785,55.216-19.8,82.813c20.828,21.3,41.406,14.4,38.255,3.15" transform="translate(37.442 22.418)" fill="#4c466f"/>
            </g>
          </g>
        </g>
      </g>
      <g id="g4611" transform="translate(0 0)">
        <path id="path4613" d="M33.676,25.384a6.635,6.635,0,1,1,6.489-6.634,6.562,6.562,0,0,1-6.489,6.634M-1.612-24.7c-26.554,5.851-46.786,55.216-19.8,82.813,20.828,21.3,41.407,14.4,38.256,3.15s-5.851-21.6,1.8-22.053c0,0,25.225-2.63,31.009-25.38C56.094-11.516,24.941-30.546-1.612-24.7" transform="translate(34.174 25.759)" fill="#f49f44"/>
      </g>
      <g id="g4615" transform="translate(19.015 21.596)">
        <path id="path4617" d="M2.086,3.361s7.7,8.872,4.2,14.709S-2.117,24.14-2.117,24.14s13.541,10.506,7.7,18.677c0,0,11.907-3.5,13.775,4.67,0,0-.467-10.74,6.537-11.907s18.211-6.3,18.211-6.3S30.1,17.836,40.376,6.629c0,0-14.709-1.868-14.008-10.04,0,0-6.3,13.308-24.281,6.771" transform="translate(2.117 3.41)" fill="#ffae68"/>
      </g>
      <g id="g4619" transform="translate(33.142 2.15)">
        <path id="path4621" d="M12.5,2.328a1.051,1.051,0,0,1-.4-.078A42.844,42.844,0,0,0-11.394.767a1.053,1.053,0,0,1-1.263-.783,1.051,1.051,0,0,1,.783-1.263A44.175,44.175,0,0,1,12.9.306a1.051,1.051,0,0,1-.4,2.022" transform="translate(12.685 2.362)" fill="#fff"/>
      </g>
      <g id="g4623" transform="translate(21.375 3.761)">
        <path id="path4625" d="M.521,3.121A1.051,1.051,0,0,1-.359,1.5c1.968-3.037,7.6-4.481,8.234-4.636a1.05,1.05,0,0,1,1.268.772A1.051,1.051,0,0,1,8.371-1.1C6.869-.728,2.688.66,1.4,2.642a1.049,1.049,0,0,1-.883.479" transform="translate(0.529 3.167)" fill="#fff"/>
      </g>
      <g id="g4627" transform="translate(27.864 8.873)">
        <path id="path4629" d="M7.644,3.907a7.787,7.787,0,0,1-7.7,7.872,7.787,7.787,0,0,1-7.7-7.872,7.788,7.788,0,0,1,7.7-7.872,7.787,7.787,0,0,1,7.7,7.872" transform="translate(7.757 3.965)" fill="#de4e8e"/>
      </g>
      <g id="g4639" transform="translate(23.353 74.291)">
        <path id="path4641" d="M7.644,3.907a7.788,7.788,0,0,1-7.7,7.872,7.787,7.787,0,0,1-7.7-7.872,7.787,7.787,0,0,1,7.7-7.872,7.787,7.787,0,0,1,7.7,7.872" transform="translate(7.757 3.965)" fill="#4c466f"/>
      </g>
      <g id="g4643" transform="translate(51.91 10.592)">
        <path id="path4645" d="M6.441,3.292A6.562,6.562,0,0,1-.048,9.926,6.562,6.562,0,0,1-6.536,3.292,6.562,6.562,0,0,1-.048-3.341,6.562,6.562,0,0,1,6.441,3.292" transform="translate(6.536 3.341)" fill="#4c466f"/>
      </g>
      <g id="g4647" transform="translate(28.35 10.713)">
        <path id="path4649" d="M.521,3.417A1.043,1.043,0,0,1-.526,2.443C-.535,2.305-.7-.964,3.381-3.326a1.052,1.052,0,0,1,1.436.383,1.051,1.051,0,0,1-.383,1.436C1.538.17,1.569,2.237,1.572,2.323a1.059,1.059,0,0,1-1,1.092H.521" transform="translate(0.529 3.467)" fill="#fff"/>
      </g>
      <g id="g4651" transform="translate(34.247 9.973)">
        <path id="path4653" d="M1.862,1.378A1.046,1.046,0,0,1,1.147,1.1,2.168,2.168,0,0,0-.6.75,1.055,1.055,0,0,1-1.86-.03a1.047,1.047,0,0,1,.766-1.263,4.278,4.278,0,0,1,3.672.851,1.05,1.05,0,0,1-.716,1.82" transform="translate(1.889 1.398)" fill="#fff"/>
      </g>
      <g id="g4655" transform="translate(52.123 12.395)">
        <path id="path4657" d="M.521,3.464A1.042,1.042,0,0,1-.522,2.52c-.013-.137-.269-3.4,3.741-5.878a1.05,1.05,0,0,1,1.446.342,1.05,1.05,0,0,1-.341,1.446C1.476.189,1.567,2.254,1.572,2.34A1.058,1.058,0,0,1,.6,3.461c-.028,0-.055,0-.083,0" transform="translate(0.529 3.515)" fill="#fff"/>
      </g>
      <g id="g4659" transform="translate(57.864 11.559)">
        <path id="path4661" d="M1.87,1.351a1.048,1.048,0,0,1-.693-.261A2.17,2.17,0,0,0-.578.793,1.055,1.055,0,0,1-1.861.05a1.046,1.046,0,0,1,.73-1.284,4.276,4.276,0,0,1,3.7.745,1.051,1.051,0,0,1,.1,1.483,1.045,1.045,0,0,1-.789.357" transform="translate(1.898 1.371)" fill="#fff"/>
      </g>
      <g id="g4679" transform="translate(24.504 76.23)">
        <path id="path4681" d="M.522,3.176c-.029,0-.058,0-.087,0A1.043,1.043,0,0,1-.527,2.065c.009-.138.275-3.4,4.628-5.208a1.051,1.051,0,0,1,1.374.567A1.051,1.051,0,0,1,4.908-1.2C1.816.081,1.577,2.134,1.568,2.221a1.06,1.06,0,0,1-1.046.955" transform="translate(0.529 3.223)" fill="#fff"/>
      </g>
      <g id="g4683" transform="translate(31.06 75.89)">
        <path id="path4685" d="M1.814,1.519A1.05,1.05,0,0,1,1,1.137,2.186,2.186,0,0,0-.674.563a1.05,1.05,0,0,1-1.16-.928,1.05,1.05,0,0,1,.929-1.16A4.27,4.27,0,0,1,2.623-.2a1.051,1.051,0,0,1-.81,1.72" transform="translate(1.841 1.541)" fill="#fff"/>
      </g>
      <g id="g4631" transform="translate(7.885 28.209)">
        <path id="path4633" d="M7.644,3.907a7.787,7.787,0,0,1-7.7,7.872,7.788,7.788,0,0,1-7.7-7.872,7.787,7.787,0,0,1,7.7-7.872,7.787,7.787,0,0,1,7.7,7.872" transform="translate(7.757 3.965)" fill="#4c466f"/>
      </g>
      <g id="g4635" transform="translate(7.563 53.667)">
        <path id="path4637" d="M7.644,3.907a7.787,7.787,0,0,1-7.7,7.872,7.787,7.787,0,0,1-7.7-7.872,7.787,7.787,0,0,1,7.7-7.872,7.788,7.788,0,0,1,7.7,7.872" transform="translate(7.757 3.965)" fill="#de4e8e"/>
      </g>
      <g id="g4663" transform="translate(8.818 29.963)">
        <path id="path4665" d="M.521,3.383A1.043,1.043,0,0,1-.528,2.388c-.006-.138-.1-3.41,4.021-5.69a1.051,1.051,0,0,1,1.428.411A1.052,1.052,0,0,1,4.51-1.462C1.581.157,1.572,2.224,1.572,2.311A1.058,1.058,0,0,1,.552,3.382H.521" transform="translate(0.529 3.433)" fill="#fff"/>
      </g>
      <g id="g4667" transform="translate(14.821 29.287)">
        <path id="path4669" d="M1.856,1.4a1.046,1.046,0,0,1-.731-.3A2.173,2.173,0,0,0-.613.72a1.056,1.056,0,0,1-1.246-.8,1.046,1.046,0,0,1,.791-1.247,4.274,4.274,0,0,1,3.654.923A1.051,1.051,0,0,1,1.856,1.4" transform="translate(1.883 1.418)" fill="#fff"/>
      </g>
      <g id="g4671" transform="translate(8.587 55.964)">
        <path id="path4673" d="M.521,3.374a1.044,1.044,0,0,1-1.049-1c0-.139-.088-3.41,4.049-5.671a1.05,1.05,0,0,1,1.425.418,1.051,1.051,0,0,1-.418,1.426C1.591.153,1.572,2.22,1.572,2.308A1.059,1.059,0,0,1,.547,3.374H.521" transform="translate(0.529 3.424)" fill="#fff"/>
      </g>
      <g id="g4675" transform="translate(14.612 55.303)">
        <path id="path4677" d="M1.856,1.4a1.047,1.047,0,0,1-.735-.3A2.182,2.182,0,0,0-.607.712a1.052,1.052,0,0,1-1.252-.8,1.051,1.051,0,0,1,.8-1.252A4.27,4.27,0,0,1,2.591-.4a1.05,1.05,0,0,1,.016,1.486,1.046,1.046,0,0,1-.751.316" transform="translate(1.884 1.423)" fill="#fff"/>
      </g>

<svg xmlns="http://www.w3.org/2000/svg" width="2.253" height="17.015" viewBox="0 0 2.253 17.015">
  <path id="Path1" d="M1.967.922C3.061,4.146,1.092,17.7.545,17.369.326,17.007.873.692,1.967.495Z" transform="matrix(1, -0.017, 0.017, 1, -0.413, -0.401)" fill="none" stroke="#000" stroke-width="0.1" opacity="0"/>
</svg>


<svg xmlns="http://www.w3.org/2000/svg" width="5.769" height="17.225" viewBox="0 0 5.769 17.225">
  <path id="Path2" d="M4.285.922C7.1,4.146,2.03,17.7.62,17.369.056,17.007,1.465.692,4.285.5Z" transform="matrix(-0.999, 0.052, -0.052, -0.999, 6.133, 17.392)" fill="none" stroke="#000" stroke-width="0.1" opacity="0"/>
</svg>



	<animateMotion 
	xlink:href="#Paste"
	dur="15s"
	begin="0s"
	fill="freeze"
	calcMode="paced"
	repeatCount="indefinite">
	<mpath xlink:href="#Path1" />
</animateMotion>

	<animateMotion 
	xlink:href="#Brush"
	dur="10s"
	begin="0s"
	fill="freeze"
	calcMode="paced"
	repeatCount="indefinite">
	<mpath xlink:href="#Path2" />
</animateMotion>

	<animateMotion 
	xlink:href="#Paint"
	dur="10s"
	begin="0s"
	fill="freeze"
	calcMode="paced"
	repeatCount="indefinite">
	<mpath xlink:href="#Path1" />
</animateMotion>


	<animateMotion 
	xlink:href="#Gun"
	dur="15s"
	begin="0s"
	fill="freeze"
	calcMode="paced"
	repeatCount="indefinite">
	<mpath xlink:href="#Path2" />
</animateMotion>

    </g>
  </g>
</svg>
